<?xml version="1.0" standalone="no"?><svg xmlns:xlink="http://www.w3.org/1999/xlink" xmlns="http://www.w3.org/2000/svg" viewBox="0 0 1000 411.76733181554397" preserveAspectRatio="xMaxYMax slice"><g transform="scale(0.8928172849426366)"><rect x="0" y="0" width="1120.057142857143" height="461.2" fill="#ffffff"/><rect x="0" y="0" width="65.89" height="65.89" fill="#000064"/><polygon points="0,0 65.89,0 0,65.89" fill="#FFFFFF"/><rect x="65.88571428571429" y="0" width="65.88571428571429" height="65.88571428571429" fill="#ffffff"/><rect x="65.89" y="0" width="32.94" height="32.94" fill="#FFFFFF"/><polygon points="98.83,0 98.83,32.94 65.89,32.94" fill="#000064"/><rect x="98.83" y="0" width="32.94" height="32.94" fill="#FFFFFF"/><g transform="translate(98.83,0) scale(1.6469999999999998) rotate(0)"><rect width="2" height="20" fill="#FFFFFF"/><rect x="4" width="2" height="20" fill="#FFFFFF"/><rect x="8" width="2" height="20" fill="#FFFFFF"/><rect x="12" width="2" height="20" fill="#FFFFFF"/><rect x="16" width="2" height="20" fill="#FFFFFF"/></g><rect x="65.89" y="32.94" width="32.94" height="32.94" fill="#FFFFFF"/><g transform="translate(65.89,32.94) scale(1.6469999999999998) rotate(0)"><path d="M10 0H20L0 20V10L10 0Z" fill="#000064"/><path d="M20 10V20H10L20 10Z" fill="#000064"/></g><rect x="98.83" y="32.94" width="32.94" height="32.94" fill="#000064"/><g transform="translate(98.83,32.94) scale(1.6469999999999998) rotate(0)"><path d="M13 0H20V7L7 20H0V13L13 0Z" fill="#00FFFF"/></g><rect x="131.77142857142857" y="0" width="65.88571428571429" height="65.88571428571429" fill="#ffffff"/><rect x="131.77" y="0" width="32.94" height="32.94" fill="#000064"/><rect x="131.77" y="0" width="32.94" height="32.94" fill="#FFFFFF"/><rect x="164.71" y="0" width="32.94" height="32.94" fill="#FFFFFF"/><g transform="translate(164.71,0) scale(1.6469999999999998) rotate(0)"><path d="M10 0H20V10L10 20H0V10L10 0Z" fill="#FFFFFF"/></g><rect x="131.77" y="32.94" width="32.94" height="32.94" fill="#000064"/><g transform="translate(131.77,32.94) scale(1.6469999999999998) rotate(0)"><rect width="20" height="2" fill="#000064"/><rect y="4" width="20" height="2" fill="#000064"/><rect y="8" width="20" height="2" fill="#000064"/><rect y="12" width="20" height="2" fill="#000064"/><rect y="16" width="20" height="2" fill="#000064"/></g><rect x="164.71" y="32.94" width="32.94" height="32.94" fill="#FFFFFF"/><g transform="translate(164.71,32.94) scale(1.6469999999999998) rotate(0)"><rect width="2" height="20" fill="#00FFFF"/><rect x="4" width="2" height="20" fill="#00FFFF"/><rect x="8" width="2" height="20" fill="#00FFFF"/><rect x="12" width="2" height="20" fill="#00FFFF"/><rect x="16" width="2" height="20" fill="#00FFFF"/></g><rect x="197.66" y="0" width="65.89" height="65.89" fill="#00FFFF"/><circle cx="230.605" cy="32.945" r="32.945" fill="#000064"/><rect x="263.54" y="0" width="65.89" height="65.89" fill="#00FFFF"/><rect x="263.54" y="0" width="65.89" height="65.89" fill="#00FFFF"/><rect x="329.42857142857144" y="0" width="65.88571428571429" height="65.88571428571429" fill="#ffffff"/><rect x="329.43" y="0" width="32.94" height="32.94" fill="#FFFFFF"/><g transform="translate(329.43,0) scale(1.6469999999999998) rotate(0)"><path d="M13 0H20V7L7 20H0V13L13 0Z" fill="#FFFFFF"/></g><rect x="362.37" y="0" width="32.94" height="32.94" fill="#000064"/><g transform="translate(362.37,0) scale(1.6469999999999998) rotate(0)"><rect width="20" height="10" fill="#000064"/></g><rect x="329.43" y="32.94" width="32.94" height="32.94" fill="#000064"/><g transform="translate(329.43,32.94) scale(1.6469999999999998) rotate(0)"><rect width="2" height="20" fill="#000064"/><rect x="4" width="2" height="20" fill="#000064"/><rect x="8" width="2" height="20" fill="#000064"/><rect x="12" width="2" height="20" fill="#000064"/><rect x="16" width="2" height="20" fill="#000064"/></g><rect x="362.37" y="32.94" width="32.94" height="32.94" fill="#000064"/><rect x="362.37" y="32.94" width="32.94" height="32.94" fill="#FFFFFF"/><rect x="395.3142857142857" y="0" width="65.88571428571429" height="65.88571428571429" fill="#ffffff"/><rect x="395.31" y="0" width="32.94" height="32.94" fill="#00FFFF"/><rect x="395.31" y="0" width="32.94" height="32.94" fill="#000064"/><rect x="428.26" y="0" width="32.94" height="32.94" fill="#FFFFFF"/><g transform="translate(428.26,0) scale(1.6469999999999998) rotate(0)"><path d="M5 0H10L5 5L0 10V5L5 0Z" fill="#00FFFF"/><path d="M20 15V20H15L20 15Z" fill="#00FFFF"/><path d="M20 5V10L15 15L10 20H5L20 5Z" fill="#00FFFF"/><path d="M15 0H20L5 15.0002L0 20.0002V15.0002L15 0Z" fill="#00FFFF"/></g><rect x="395.31" y="32.94" width="32.94" height="32.94" fill="#000064"/><circle cx="411.78" cy="49.41" r="16.47" fill="#FFFFFF"/><rect x="428.26" y="32.94" width="32.94" height="32.94" fill="#000064"/><g transform="translate(428.26,32.94) scale(1.6469999999999998) rotate(0)"><rect width="2" height="20" fill="#00FFFF"/><rect x="4" width="2" height="20" fill="#00FFFF"/><rect x="8" width="2" height="20" fill="#00FFFF"/><rect x="12" width="2" height="20" fill="#00FFFF"/><rect x="16" width="2" height="20" fill="#00FFFF"/></g><rect x="461.2" y="0" width="65.89" height="65.89" fill="#00FFFF"/><g transform="translate(461.2,0) scale(3.2945) rotate(0)"><path d="M13 0H20V7L7 20H0V13L13 0Z" fill="#000064"/></g><rect x="527.0857142857143" y="0" width="65.88571428571429" height="65.88571428571429" fill="#ffffff"/><rect x="527.09" y="0" width="32.94" height="32.94" fill="#FFFFFF"/><g transform="translate(527.09,0) scale(1.6469999999999998) rotate(0)"><path d="M5 0H10L5 5L0 10V5L5 0Z" fill="#000064"/><path d="M20 15V20H15L20 15Z" fill="#000064"/><path d="M20 5V10L15 15L10 20H5L20 5Z" fill="#000064"/><path d="M15 0H20L5 15.0002L0 20.0002V15.0002L15 0Z" fill="#000064"/></g><rect x="560.03" y="0" width="32.94" height="32.94" fill="#00FFFF"/><g transform="translate(560.03,0) scale(1.6469999999999998) rotate(0)"><path d="M19.9981 0.00193429L3.72652 -7.68637e-07L8.4784 4.75382L0 13.2345L6.76585 20L15.2462 11.5208L20 16.2746L19.9981 0.00193429Z" fill="#00FFFF"/></g><rect x="527.09" y="32.94" width="32.94" height="32.94" fill="#FFFFFF"/><g transform="translate(527.09,32.94) scale(1.6469999999999998) rotate(0)"><path d="M10 0H20L0 20V10L10 0Z" fill="#00FFFF"/><path d="M20 10V20H10L20 10Z" fill="#00FFFF"/></g><rect x="560.03" y="32.94" width="32.94" height="32.94" fill="#000064"/><g transform="translate(560.03,32.94) scale(1.6469999999999998) rotate(0)"><path d="M19.9981 0.00193429L3.72652 -7.68637e-07L8.4784 4.75382L0 13.2345L6.76585 20L15.2462 11.5208L20 16.2746L19.9981 0.00193429Z" fill="#000064"/></g><rect x="592.9714285714285" y="0" width="65.88571428571429" height="65.88571428571429" fill="#ffffff"/><rect x="592.97" y="0" width="32.94" height="32.94" fill="#00FFFF"/><g transform="translate(592.97,0) scale(1.6469999999999998) rotate(0)"><path fill-rule="evenodd" clip-rule="evenodd" d="M10 20C15.5228 20 20 15.5228 20 10C20 4.47715 15.5228 0 10 0C4.47715 0 0 4.47715 0 10C0 15.5228 4.47715 20 10 20ZM10 17C13.866 17 17 13.866 17 10C17 6.13401 13.866 3 10 3C6.13401 3 3 6.13401 3 10C3 13.866 6.13401 17 10 17Z" fill="#000064"/></g><rect x="625.91" y="0" width="32.94" height="32.94" fill="#00FFFF"/><g transform="translate(625.91,0) scale(1.6469999999999998) rotate(0)"><path fill-rule="evenodd" clip-rule="evenodd" d="M10 20C15.5228 20 20 15.5228 20 10C20 4.47715 15.5228 0 10 0C4.47715 0 0 4.47715 0 10C0 15.5228 4.47715 20 10 20ZM10 17C13.866 17 17 13.866 17 10C17 6.13401 13.866 3 10 3C6.13401 3 3 6.13401 3 10C3 13.866 6.13401 17 10 17Z" fill="#FFFFFF"/></g><rect x="592.97" y="32.94" width="32.94" height="32.94" fill="#00FFFF"/><g transform="translate(592.97,32.94) scale(1.6469999999999998) rotate(0)"><path fill-rule="evenodd" clip-rule="evenodd" d="M10 20C15.5228 20 20 15.5228 20 10C20 4.47715 15.5228 0 10 0C4.47715 0 0 4.47715 0 10C0 15.5228 4.47715 20 10 20ZM10 17C13.866 17 17 13.866 17 10C17 6.13401 13.866 3 10 3C6.13401 3 3 6.13401 3 10C3 13.866 6.13401 17 10 17Z" fill="#FFFFFF"/></g><rect x="625.91" y="32.94" width="32.94" height="32.94" fill="#00FFFF"/><g transform="translate(625.91,32.94) scale(1.6469999999999998) rotate(0)"><path d="M13 0H20V7L7 20H0V13L13 0Z" fill="#00FFFF"/></g><rect x="658.8571428571429" y="0" width="65.88571428571429" height="65.88571428571429" fill="#ffffff"/><rect x="658.86" y="0" width="32.94" height="32.94" fill="#FFFFFF"/><rect x="658.86" y="0" width="32.94" height="32.94" fill="#000064"/><rect x="691.8" y="0" width="32.94" height="32.94" fill="#000064"/><g transform="translate(691.8,0) scale(1.6469999999999998) rotate(0)"><path fill-rule="evenodd" clip-rule="evenodd" d="M10 20C15.5228 20 20 15.5228 20 10C20 4.47715 15.5228 0 10 0C4.47715 0 0 4.47715 0 10C0 15.5228 4.47715 20 10 20ZM10 17C13.866 17 17 13.866 17 10C17 6.13401 13.866 3 10 3C6.13401 3 3 6.13401 3 10C3 13.866 6.13401 17 10 17Z" fill="#000064"/></g><rect x="658.86" y="32.94" width="32.94" height="32.94" fill="#00FFFF"/><g transform="translate(658.86,32.94) scale(1.6469999999999998) rotate(0)"><rect width="2" height="20" fill="#00FFFF"/><rect x="4" width="2" height="20" fill="#00FFFF"/><rect x="8" width="2" height="20" fill="#00FFFF"/><rect x="12" width="2" height="20" fill="#00FFFF"/><rect x="16" width="2" height="20" fill="#00FFFF"/></g><rect x="691.8" y="32.94" width="32.94" height="32.94" fill="#000064"/><g transform="translate(691.8,32.94) scale(1.6469999999999998) rotate(0)"><rect width="20" height="10" fill="#000064"/></g><rect x="724.74" y="0" width="65.89" height="65.89" fill="#FFFFFF"/><polygon points="724.74,0 790.63,0 724.74,65.89" fill="#FFFFFF"/><rect x="790.6285714285714" y="0" width="65.88571428571429" height="65.88571428571429" fill="#ffffff"/><rect x="790.63" y="0" width="32.94" height="32.94" fill="#FFFFFF"/><g transform="translate(790.63,0) scale(1.6469999999999998) rotate(0)"><path d="M19.9981 0.00193429L3.72652 -7.68637e-07L8.4784 4.75382L0 13.2345L6.76585 20L15.2462 11.5208L20 16.2746L19.9981 0.00193429Z" fill="#000064"/></g><rect x="823.57" y="0" width="32.94" height="32.94" fill="#000064"/><g transform="translate(823.57,0) scale(1.6469999999999998) rotate(0)"><path d="M19.9981 0.00193429L3.72652 -7.68637e-07L8.4784 4.75382L0 13.2345L6.76585 20L15.2462 11.5208L20 16.2746L19.9981 0.00193429Z" fill="#000064"/></g><rect x="790.63" y="32.94" width="32.94" height="32.94" fill="#FFFFFF"/><path d="M 790.63 32.94 A 32.94 32.94 0 0 1  823.5699999999999 65.88 L 790.63 32.94 A 32.94 32.94 0 0 0 823.5699999999999 65.88" fill="#00FFFF"/><rect x="823.57" y="32.94" width="32.94" height="32.94" fill="#000064"/><g transform="translate(823.57,32.94) scale(1.6469999999999998) rotate(0)"><path d="M13 0H20V7L7 20H0V13L13 0Z" fill="#FFFFFF"/></g><rect x="856.51" y="0" width="65.89" height="65.89" fill="#000064"/><g transform="translate(856.51,0) scale(3.2945) rotate(0)"><path d="M10 0H20V10L10 20H0V10L10 0Z" fill="#FFFFFF"/></g><rect x="922.4" y="0" width="65.89" height="65.89" fill="#00FFFF"/><polygon points="922.4,0 988.29,65.89 922.4,65.89" fill="#00FFFF"/><rect x="988.29" y="0" width="65.89" height="65.89" fill="#000064"/><rect x="988.29" y="0" width="65.89" height="65.89" fill="#000064"/><rect x="1054.17" y="0" width="65.89" height="65.89" fill="#00FFFF"/><circle cx="1087.115" cy="32.945" r="32.945" fill="#00FFFF"/><rect x="0" y="65.88571428571429" width="65.88571428571429" height="65.88571428571429" fill="#ffffff"/><rect x="0" y="65.89" width="32.94" height="32.94" fill="#00FFFF"/><g transform="translate(0,65.89) scale(1.6469999999999998) rotate(0)"><path d="M13 0H20V7L7 20H0V13L13 0Z" fill="#00FFFF"/></g><rect x="32.94" y="65.89" width="32.94" height="32.94" fill="#000064"/><g transform="translate(32.94,65.89) scale(1.6469999999999998) rotate(0)"><rect width="2" height="20" fill="#FFFFFF"/><rect x="4" width="2" height="20" fill="#FFFFFF"/><rect x="8" width="2" height="20" fill="#FFFFFF"/><rect x="12" width="2" height="20" fill="#FFFFFF"/><rect x="16" width="2" height="20" fill="#FFFFFF"/></g><rect x="0" y="98.83" width="32.94" height="32.94" fill="#000064"/><g transform="translate(0,98.83) scale(1.6469999999999998) rotate(0)"><path d="M5 0H10L5 5L0 10V5L5 0Z" fill="#000064"/><path d="M20 15V20H15L20 15Z" fill="#000064"/><path d="M20 5V10L15 15L10 20H5L20 5Z" fill="#000064"/><path d="M15 0H20L5 15.0002L0 20.0002V15.0002L15 0Z" fill="#000064"/></g><rect x="32.94" y="98.83" width="32.94" height="32.94" fill="#000064"/><g transform="translate(32.94,98.83) scale(1.6469999999999998) rotate(0)"><path d="M5 0H10L5 5L0 10V5L5 0Z" fill="#000064"/><path d="M20 15V20H15L20 15Z" fill="#000064"/><path d="M20 5V10L15 15L10 20H5L20 5Z" fill="#000064"/><path d="M15 0H20L5 15.0002L0 20.0002V15.0002L15 0Z" fill="#000064"/></g><rect x="65.89" y="65.89" width="65.89" height="65.89" fill="#000064"/><g transform="translate(65.89,65.89) scale(3.2945) rotate(0)"><path fill-rule="evenodd" clip-rule="evenodd" d="M10 20C15.5228 20 20 15.5228 20 10C20 4.47715 15.5228 0 10 0C4.47715 0 0 4.47715 0 10C0 15.5228 4.47715 20 10 20ZM10 17C13.866 17 17 13.866 17 10C17 6.13401 13.866 3 10 3C6.13401 3 3 6.13401 3 10C3 13.866 6.13401 17 10 17Z" fill="#FFFFFF"/></g><rect x="131.77" y="65.89" width="65.89" height="65.89" fill="#00FFFF"/><g transform="translate(131.77,65.89) scale(3.2945) rotate(0)"><path d="M10 0H20L0 20V10L10 0Z" fill="#00FFFF"/><path d="M20 10V20H10L20 10Z" fill="#00FFFF"/></g><rect x="197.66" y="65.89" width="65.89" height="65.89" fill="#FFFFFF"/><g transform="translate(197.66,65.89) scale(3.2945) rotate(0)"><rect width="20" height="2" fill="#00FFFF"/><rect y="4" width="20" height="2" fill="#00FFFF"/><rect y="8" width="20" height="2" fill="#00FFFF"/><rect y="12" width="20" height="2" fill="#00FFFF"/><rect y="16" width="20" height="2" fill="#00FFFF"/></g><rect x="263.54" y="65.89" width="65.89" height="65.89" fill="#FFFFFF"/><g transform="translate(263.54,65.89) scale(3.2945) rotate(0)"><path d="M13 0H20V7L7 20H0V13L13 0Z" fill="#FFFFFF"/></g><rect x="329.43" y="65.89" width="65.89" height="65.89" fill="#000064"/><circle cx="362.375" cy="98.83500000000001" r="32.945" fill="#FFFFFF"/><rect x="395.31" y="65.89" width="65.89" height="65.89" fill="#FFFFFF"/><g transform="translate(395.31,65.89) scale(3.2945) rotate(0)"><rect width="20" height="10" fill="#FFFFFF"/></g><rect x="461.2" y="65.88571428571429" width="65.88571428571429" height="65.88571428571429" fill="#ffffff"/><rect x="461.2" y="65.89" width="32.94" height="32.94" fill="#00FFFF"/><g transform="translate(461.2,65.89) scale(1.6469999999999998) rotate(0)"><path fill-rule="evenodd" clip-rule="evenodd" d="M10 20C15.5228 20 20 15.5228 20 10C20 4.47715 15.5228 0 10 0C4.47715 0 0 4.47715 0 10C0 15.5228 4.47715 20 10 20ZM10 17C13.866 17 17 13.866 17 10C17 6.13401 13.866 3 10 3C6.13401 3 3 6.13401 3 10C3 13.866 6.13401 17 10 17Z" fill="#FFFFFF"/></g><rect x="494.14" y="65.89" width="32.94" height="32.94" fill="#00FFFF"/><path d="M 494.14 65.89 A 32.94 32.94 0 0 1  527.0799999999999 98.83 L 494.14 65.89 A 32.94 32.94 0 0 0 527.0799999999999 98.83" fill="#00FFFF"/><rect x="461.2" y="98.83" width="32.94" height="32.94" fill="#00FFFF"/><g transform="translate(461.2,98.83) scale(1.6469999999999998) rotate(0)"><rect width="20" height="2" fill="#FFFFFF"/><rect y="4" width="20" height="2" fill="#FFFFFF"/><rect y="8" width="20" height="2" fill="#FFFFFF"/><rect y="12" width="20" height="2" fill="#FFFFFF"/><rect y="16" width="20" height="2" fill="#FFFFFF"/></g><rect x="494.14" y="98.83" width="32.94" height="32.94" fill="#00FFFF"/><rect x="494.14" y="98.83" width="32.94" height="32.94" fill="#00FFFF"/><rect x="527.0857142857143" y="65.88571428571429" width="65.88571428571429" height="65.88571428571429" fill="#ffffff"/><rect x="527.09" y="65.89" width="32.94" height="32.94" fill="#FFFFFF"/><path d="M 527.09 65.89 A 32.94 32.94 0 0 0 560.03 98.83 L 560.03 65.89" fill="#000064"/><rect x="560.03" y="65.89" width="32.94" height="32.94" fill="#000064"/><circle cx="576.5" cy="82.36" r="16.47" fill="#000064"/><rect x="527.09" y="98.83" width="32.94" height="32.94" fill="#00FFFF"/><g transform="translate(527.09,98.83) scale(1.6469999999999998) rotate(0)"><path fill-rule="evenodd" clip-rule="evenodd" d="M10 20C15.5228 20 20 15.5228 20 10C20 4.47715 15.5228 0 10 0C4.47715 0 0 4.47715 0 10C0 15.5228 4.47715 20 10 20ZM10 17C13.866 17 17 13.866 17 10C17 6.13401 13.866 3 10 3C6.13401 3 3 6.13401 3 10C3 13.866 6.13401 17 10 17Z" fill="#FFFFFF"/></g><rect x="560.03" y="98.83" width="32.94" height="32.94" fill="#FFFFFF"/><g transform="translate(560.03,98.83) scale(1.6469999999999998) rotate(0)"><path d="M19.9981 0.00193429L3.72652 -7.68637e-07L8.4784 4.75382L0 13.2345L6.76585 20L15.2462 11.5208L20 16.2746L19.9981 0.00193429Z" fill="#00FFFF"/></g><rect x="592.97" y="65.89" width="65.89" height="65.89" fill="#FFFFFF"/><circle cx="625.9150000000001" cy="98.83500000000001" r="32.945" fill="#000064"/><rect x="658.8571428571429" y="65.88571428571429" width="65.88571428571429" height="65.88571428571429" fill="#ffffff"/><rect x="658.86" y="65.89" width="32.94" height="32.94" fill="#00FFFF"/><circle cx="675.33" cy="82.36" r="16.47" fill="#00FFFF"/><rect x="691.8" y="65.89" width="32.94" height="32.94" fill="#000064"/><g transform="translate(691.8,65.89) scale(1.6469999999999998) rotate(0)"><path fill-rule="evenodd" clip-rule="evenodd" d="M10 20C15.5228 20 20 15.5228 20 10C20 4.47715 15.5228 0 10 0C4.47715 0 0 4.47715 0 10C0 15.5228 4.47715 20 10 20ZM10 17C13.866 17 17 13.866 17 10C17 6.13401 13.866 3 10 3C6.13401 3 3 6.13401 3 10C3 13.866 6.13401 17 10 17Z" fill="#000064"/></g><rect x="658.86" y="98.83" width="32.94" height="32.94" fill="#000064"/><g transform="translate(658.86,98.83) scale(1.6469999999999998) rotate(0)"><path d="M19.9981 0.00193429L3.72652 -7.68637e-07L8.4784 4.75382L0 13.2345L6.76585 20L15.2462 11.5208L20 16.2746L19.9981 0.00193429Z" fill="#FFFFFF"/></g><rect x="691.8" y="98.83" width="32.94" height="32.94" fill="#FFFFFF"/><g transform="translate(691.8,98.83) scale(1.6469999999999998) rotate(0)"><path d="M10 0H20V10L10 20H0V10L10 0Z" fill="#00FFFF"/></g><rect x="724.74" y="65.89" width="65.89" height="65.89" fill="#000064"/><g transform="translate(724.74,65.89) scale(3.2945) rotate(0)"><rect width="20" height="2" fill="#000064"/><rect y="4" width="20" height="2" fill="#000064"/><rect y="8" width="20" height="2" fill="#000064"/><rect y="12" width="20" height="2" fill="#000064"/><rect y="16" width="20" height="2" fill="#000064"/></g><rect x="790.6285714285714" y="65.88571428571429" width="65.88571428571429" height="65.88571428571429" fill="#ffffff"/><rect x="790.63" y="65.89" width="32.94" height="32.94" fill="#FFFFFF"/><path d="M 790.63 65.89 A 32.94 32.94 0 0 1 823.5699999999999 98.83 L 790.63 98.83" fill="#000064"/><rect x="823.57" y="65.89" width="32.94" height="32.94" fill="#FFFFFF"/><g transform="translate(823.57,65.89) scale(1.6469999999999998) rotate(0)"><rect width="20" height="2" fill="#000064"/><rect y="4" width="20" height="2" fill="#000064"/><rect y="8" width="20" height="2" fill="#000064"/><rect y="12" width="20" height="2" fill="#000064"/><rect y="16" width="20" height="2" fill="#000064"/></g><rect x="790.63" y="98.83" width="32.94" height="32.94" fill="#00FFFF"/><g transform="translate(790.63,98.83) scale(1.6469999999999998) rotate(0)"><path fill-rule="evenodd" clip-rule="evenodd" d="M10 20C15.5228 20 20 15.5228 20 10C20 4.47715 15.5228 0 10 0C4.47715 0 0 4.47715 0 10C0 15.5228 4.47715 20 10 20ZM10 17C13.866 17 17 13.866 17 10C17 6.13401 13.866 3 10 3C6.13401 3 3 6.13401 3 10C3 13.866 6.13401 17 10 17Z" fill="#00FFFF"/></g><rect x="823.57" y="98.83" width="32.94" height="32.94" fill="#000064"/><g transform="translate(823.57,98.83) scale(1.6469999999999998) rotate(0)"><rect width="2" height="20" fill="#FFFFFF"/><rect x="4" width="2" height="20" fill="#FFFFFF"/><rect x="8" width="2" height="20" fill="#FFFFFF"/><rect x="12" width="2" height="20" fill="#FFFFFF"/><rect x="16" width="2" height="20" fill="#FFFFFF"/></g><rect x="856.51" y="65.89" width="65.89" height="65.89" fill="#00FFFF"/><g transform="translate(856.51,65.89) scale(3.2945) rotate(0)"><rect width="2" height="20" fill="#00FFFF"/><rect x="4" width="2" height="20" fill="#00FFFF"/><rect x="8" width="2" height="20" fill="#00FFFF"/><rect x="12" width="2" height="20" fill="#00FFFF"/><rect x="16" width="2" height="20" fill="#00FFFF"/></g><rect x="922.4" y="65.89" width="65.89" height="65.89" fill="#00FFFF"/><g transform="translate(922.4,65.89) scale(3.2945) rotate(0)"><path fill-rule="evenodd" clip-rule="evenodd" d="M10 20C15.5228 20 20 15.5228 20 10C20 4.47715 15.5228 0 10 0C4.47715 0 0 4.47715 0 10C0 15.5228 4.47715 20 10 20ZM10 17C13.866 17 17 13.866 17 10C17 6.13401 13.866 3 10 3C6.13401 3 3 6.13401 3 10C3 13.866 6.13401 17 10 17Z" fill="#00FFFF"/></g><rect x="988.2857142857143" y="65.88571428571429" width="65.88571428571429" height="65.88571428571429" fill="#ffffff"/><rect x="988.29" y="65.89" width="32.94" height="32.94" fill="#FFFFFF"/><g transform="translate(988.29,65.89) scale(1.6469999999999998) rotate(0)"><rect width="2" height="20" fill="#FFFFFF"/><rect x="4" width="2" height="20" fill="#FFFFFF"/><rect x="8" width="2" height="20" fill="#FFFFFF"/><rect x="12" width="2" height="20" fill="#FFFFFF"/><rect x="16" width="2" height="20" fill="#FFFFFF"/></g><rect x="1021.23" y="65.89" width="32.94" height="32.94" fill="#FFFFFF"/><g transform="translate(1021.23,65.89) scale(1.6469999999999998) rotate(0)"><path d="M13 0H20V7L7 20H0V13L13 0Z" fill="#FFFFFF"/></g><rect x="988.29" y="98.83" width="32.94" height="32.94" fill="#FFFFFF"/><g transform="translate(988.29,98.83) scale(1.6469999999999998) rotate(0)"><rect width="2" height="20" fill="#FFFFFF"/><rect x="4" width="2" height="20" fill="#FFFFFF"/><rect x="8" width="2" height="20" fill="#FFFFFF"/><rect x="12" width="2" height="20" fill="#FFFFFF"/><rect x="16" width="2" height="20" fill="#FFFFFF"/></g><rect x="1021.23" y="98.83" width="32.94" height="32.94" fill="#00FFFF"/><g transform="translate(1021.23,98.83) scale(1.6469999999999998) rotate(0)"><rect width="2" height="20" fill="#000064"/><rect x="4" width="2" height="20" fill="#000064"/><rect x="8" width="2" height="20" fill="#000064"/><rect x="12" width="2" height="20" fill="#000064"/><rect x="16" width="2" height="20" fill="#000064"/></g><rect x="1054.1714285714286" y="65.88571428571429" width="65.88571428571429" height="65.88571428571429" fill="#ffffff"/><rect x="1054.17" y="65.89" width="32.94" height="32.94" fill="#FFFFFF"/><polygon points="1054.17,65.89 1087.1100000000001,65.89 1087.1100000000001,98.83" fill="#FFFFFF"/><rect x="1087.11" y="65.89" width="32.94" height="32.94" fill="#00FFFF"/><g transform="translate(1087.11,65.89) scale(1.6469999999999998) rotate(0)"><rect width="20" height="10" fill="#00FFFF"/></g><rect x="1054.17" y="98.83" width="32.94" height="32.94" fill="#FFFFFF"/><g transform="translate(1054.17,98.83) scale(1.6469999999999998) rotate(0)"><path d="M13 0H20V7L7 20H0V13L13 0Z" fill="#FFFFFF"/></g><rect x="1087.11" y="98.83" width="32.94" height="32.94" fill="#00FFFF"/><g transform="translate(1087.11,98.83) scale(1.6469999999999998) rotate(0)"><path d="M19.9981 0.00193429L3.72652 -7.68637e-07L8.4784 4.75382L0 13.2345L6.76585 20L15.2462 11.5208L20 16.2746L19.9981 0.00193429Z" fill="#FFFFFF"/></g><rect x="0" y="131.77142857142857" width="65.88571428571429" height="65.88571428571429" fill="#ffffff"/><rect x="0" y="131.77" width="32.94" height="32.94" fill="#00FFFF"/><g transform="translate(0,131.77) scale(1.6469999999999998) rotate(0)"><path d="M13 0H20V7L7 20H0V13L13 0Z" fill="#00FFFF"/></g><rect x="32.94" y="131.77" width="32.94" height="32.94" fill="#FFFFFF"/><g transform="translate(32.94,131.77) scale(1.6469999999999998) rotate(0)"><path d="M10 0H20V10L10 20H0V10L10 0Z" fill="#00FFFF"/></g><rect x="0" y="164.71" width="32.94" height="32.94" fill="#000064"/><g transform="translate(0,164.71) scale(1.6469999999999998) rotate(0)"><path fill-rule="evenodd" clip-rule="evenodd" d="M10 20C15.5228 20 20 15.5228 20 10C20 4.47715 15.5228 0 10 0C4.47715 0 0 4.47715 0 10C0 15.5228 4.47715 20 10 20ZM10 17C13.866 17 17 13.866 17 10C17 6.13401 13.866 3 10 3C6.13401 3 3 6.13401 3 10C3 13.866 6.13401 17 10 17Z" fill="#00FFFF"/></g><rect x="32.94" y="164.71" width="32.94" height="32.94" fill="#00FFFF"/><g transform="translate(32.94,164.71) scale(1.6469999999999998) rotate(0)"><path d="M5 0H10L5 5L0 10V5L5 0Z" fill="#FFFFFF"/><path d="M20 15V20H15L20 15Z" fill="#FFFFFF"/><path d="M20 5V10L15 15L10 20H5L20 5Z" fill="#FFFFFF"/><path d="M15 0H20L5 15.0002L0 20.0002V15.0002L15 0Z" fill="#FFFFFF"/></g><rect x="65.88571428571429" y="131.77142857142857" width="65.88571428571429" height="65.88571428571429" fill="#ffffff"/><rect x="65.89" y="131.77" width="32.94" height="32.94" fill="#00FFFF"/><g transform="translate(65.89,131.77) scale(1.6469999999999998) rotate(0)"><path d="M5 0H10L5 5L0 10V5L5 0Z" fill="#FFFFFF"/><path d="M20 15V20H15L20 15Z" fill="#FFFFFF"/><path d="M20 5V10L15 15L10 20H5L20 5Z" fill="#FFFFFF"/><path d="M15 0H20L5 15.0002L0 20.0002V15.0002L15 0Z" fill="#FFFFFF"/></g><rect x="98.83" y="131.77" width="32.94" height="32.94" fill="#FFFFFF"/><g transform="translate(98.83,131.77) scale(1.6469999999999998) rotate(0)"><path d="M10 0H20V10L10 20H0V10L10 0Z" fill="#000064"/></g><rect x="65.89" y="164.71" width="32.94" height="32.94" fill="#00FFFF"/><g transform="translate(65.89,164.71) scale(1.6469999999999998) rotate(0)"><rect width="20" height="10" fill="#000064"/></g><rect x="98.83" y="164.71" width="32.94" height="32.94" fill="#000064"/><g transform="translate(98.83,164.71) scale(1.6469999999999998) rotate(0)"><path d="M19.9981 0.00193429L3.72652 -7.68637e-07L8.4784 4.75382L0 13.2345L6.76585 20L15.2462 11.5208L20 16.2746L19.9981 0.00193429Z" fill="#000064"/></g><rect x="131.77" y="131.77" width="65.89" height="65.89" fill="#000064"/><rect x="131.77" y="131.77" width="65.89" height="65.89" fill="#00FFFF"/><rect x="197.65714285714284" y="131.77142857142857" width="65.88571428571429" height="65.88571428571429" fill="#ffffff"/><rect x="197.66" y="131.77" width="32.94" height="32.94" fill="#000064"/><g transform="translate(197.66,131.77) scale(1.6469999999999998) rotate(0)"><path d="M10 0H20V10L10 20H0V10L10 0Z" fill="#00FFFF"/></g><rect x="230.6" y="131.77" width="32.94" height="32.94" fill="#00FFFF"/><g transform="translate(230.6,131.77) scale(1.6469999999999998) rotate(0)"><path fill-rule="evenodd" clip-rule="evenodd" d="M10 20C15.5228 20 20 15.5228 20 10C20 4.47715 15.5228 0 10 0C4.47715 0 0 4.47715 0 10C0 15.5228 4.47715 20 10 20ZM10 17C13.866 17 17 13.866 17 10C17 6.13401 13.866 3 10 3C6.13401 3 3 6.13401 3 10C3 13.866 6.13401 17 10 17Z" fill="#00FFFF"/></g><rect x="197.66" y="164.71" width="32.94" height="32.94" fill="#FFFFFF"/><g transform="translate(197.66,164.71) scale(1.6469999999999998) rotate(0)"><path d="M5 0H10L5 5L0 10V5L5 0Z" fill="#000064"/><path d="M20 15V20H15L20 15Z" fill="#000064"/><path d="M20 5V10L15 15L10 20H5L20 5Z" fill="#000064"/><path d="M15 0H20L5 15.0002L0 20.0002V15.0002L15 0Z" fill="#000064"/></g><rect x="230.6" y="164.71" width="32.94" height="32.94" fill="#00FFFF"/><g transform="translate(230.6,164.71) scale(1.6469999999999998) rotate(0)"><rect width="2" height="20" fill="#000064"/><rect x="4" width="2" height="20" fill="#000064"/><rect x="8" width="2" height="20" fill="#000064"/><rect x="12" width="2" height="20" fill="#000064"/><rect x="16" width="2" height="20" fill="#000064"/></g><rect x="263.54" y="131.77" width="65.89" height="65.89" fill="#000064"/><g transform="translate(263.54,131.77) scale(3.2945) rotate(0)"><path fill-rule="evenodd" clip-rule="evenodd" d="M10 20C15.5228 20 20 15.5228 20 10C20 4.47715 15.5228 0 10 0C4.47715 0 0 4.47715 0 10C0 15.5228 4.47715 20 10 20ZM10 17C13.866 17 17 13.866 17 10C17 6.13401 13.866 3 10 3C6.13401 3 3 6.13401 3 10C3 13.866 6.13401 17 10 17Z" fill="#000064"/></g><rect x="329.42857142857144" y="131.77142857142857" width="65.88571428571429" height="65.88571428571429" fill="#ffffff"/><rect x="329.43" y="131.77" width="32.94" height="32.94" fill="#00FFFF"/><g transform="translate(329.43,131.77) scale(1.6469999999999998) rotate(0)"><rect width="2" height="20" fill="#00FFFF"/><rect x="4" width="2" height="20" fill="#00FFFF"/><rect x="8" width="2" height="20" fill="#00FFFF"/><rect x="12" width="2" height="20" fill="#00FFFF"/><rect x="16" width="2" height="20" fill="#00FFFF"/></g><rect x="362.37" y="131.77" width="32.94" height="32.94" fill="#FFFFFF"/><g transform="translate(362.37,131.77) scale(1.6469999999999998) rotate(0)"><path d="M13 0H20V7L7 20H0V13L13 0Z" fill="#FFFFFF"/></g><rect x="329.43" y="164.71" width="32.94" height="32.94" fill="#FFFFFF"/><g transform="translate(329.43,164.71) scale(1.6469999999999998) rotate(0)"><path fill-rule="evenodd" clip-rule="evenodd" d="M10 20C15.5228 20 20 15.5228 20 10C20 4.47715 15.5228 0 10 0C4.47715 0 0 4.47715 0 10C0 15.5228 4.47715 20 10 20ZM10 17C13.866 17 17 13.866 17 10C17 6.13401 13.866 3 10 3C6.13401 3 3 6.13401 3 10C3 13.866 6.13401 17 10 17Z" fill="#00FFFF"/></g><rect x="362.37" y="164.71" width="32.94" height="32.94" fill="#00FFFF"/><g transform="translate(362.37,164.71) scale(1.6469999999999998) rotate(0)"><path fill-rule="evenodd" clip-rule="evenodd" d="M10 20C15.5228 20 20 15.5228 20 10C20 4.47715 15.5228 0 10 0C4.47715 0 0 4.47715 0 10C0 15.5228 4.47715 20 10 20ZM10 17C13.866 17 17 13.866 17 10C17 6.13401 13.866 3 10 3C6.13401 3 3 6.13401 3 10C3 13.866 6.13401 17 10 17Z" fill="#000064"/></g><rect x="395.31" y="131.77" width="65.89" height="65.89" fill="#FFFFFF"/><g transform="translate(395.31,131.77) scale(3.2945) rotate(0)"><rect width="2" height="20" fill="#000064"/><rect x="4" width="2" height="20" fill="#000064"/><rect x="8" width="2" height="20" fill="#000064"/><rect x="12" width="2" height="20" fill="#000064"/><rect x="16" width="2" height="20" fill="#000064"/></g><rect x="461.2" y="131.77142857142857" width="65.88571428571429" height="65.88571428571429" fill="#ffffff"/><rect x="461.2" y="131.77" width="32.94" height="32.94" fill="#000064"/><polygon points="461.2,131.77 494.14,131.77 461.2,164.71" fill="#FFFFFF"/><rect x="494.14" y="131.77" width="32.94" height="32.94" fill="#000064"/><g transform="translate(494.14,131.77) scale(1.6469999999999998) rotate(0)"><rect width="2" height="20" fill="#00FFFF"/><rect x="4" width="2" height="20" fill="#00FFFF"/><rect x="8" width="2" height="20" fill="#00FFFF"/><rect x="12" width="2" height="20" fill="#00FFFF"/><rect x="16" width="2" height="20" fill="#00FFFF"/></g><rect x="461.2" y="164.71" width="32.94" height="32.94" fill="#FFFFFF"/><rect x="461.2" y="164.71" width="32.94" height="32.94" fill="#00FFFF"/><rect x="494.14" y="164.71" width="32.94" height="32.94" fill="#000064"/><g transform="translate(494.14,164.71) scale(1.6469999999999998) rotate(0)"><path d="M10 0H20V10L10 20H0V10L10 0Z" fill="#00FFFF"/></g><rect x="527.09" y="131.77" width="65.89" height="65.89" fill="#000064"/><g transform="translate(527.09,131.77) scale(3.2945) rotate(0)"><rect width="20" height="10" fill="#FFFFFF"/></g><rect x="592.97" y="131.77" width="65.89" height="65.89" fill="#FFFFFF"/><rect x="592.97" y="131.77" width="65.89" height="65.89" fill="#00FFFF"/><rect x="658.86" y="131.77" width="65.89" height="65.89" fill="#00FFFF"/><path d="M 658.86 131.77 A 65.89 65.89 0 0 0 724.75 197.66000000000003 L 724.75 131.77" fill="#FFFFFF"/><rect x="724.7428571428571" y="131.77142857142857" width="65.88571428571429" height="65.88571428571429" fill="#ffffff"/><rect x="724.74" y="131.77" width="32.94" height="32.94" fill="#000064"/><path d="M 724.74 131.77 A 32.94 32.94 0 0 1  757.6800000000001 164.71 L 724.74 131.77 A 32.94 32.94 0 0 0 757.6800000000001 164.71" fill="#000064"/><rect x="757.69" y="131.77" width="32.94" height="32.94" fill="#00FFFF"/><g transform="translate(757.69,131.77) scale(1.6469999999999998) rotate(0)"><path d="M10 0H20L0 20V10L10 0Z" fill="#FFFFFF"/><path d="M20 10V20H10L20 10Z" fill="#FFFFFF"/></g><rect x="724.74" y="164.71" width="32.94" height="32.94" fill="#000064"/><g transform="translate(724.74,164.71) scale(1.6469999999999998) rotate(0)"><path d="M10 0H20L0 20V10L10 0Z" fill="#FFFFFF"/><path d="M20 10V20H10L20 10Z" fill="#FFFFFF"/></g><rect x="757.69" y="164.71" width="32.94" height="32.94" fill="#FFFFFF"/><g transform="translate(757.69,164.71) scale(1.6469999999999998) rotate(0)"><path d="M19.9981 0.00193429L3.72652 -7.68637e-07L8.4784 4.75382L0 13.2345L6.76585 20L15.2462 11.5208L20 16.2746L19.9981 0.00193429Z" fill="#000064"/></g><rect x="790.6285714285714" y="131.77142857142857" width="65.88571428571429" height="65.88571428571429" fill="#ffffff"/><rect x="790.63" y="131.77" width="32.94" height="32.94" fill="#FFFFFF"/><g transform="translate(790.63,131.77) scale(1.6469999999999998) rotate(0)"><path d="M10 0H20V10L10 20H0V10L10 0Z" fill="#00FFFF"/></g><rect x="823.57" y="131.77" width="32.94" height="32.94" fill="#00FFFF"/><g transform="translate(823.57,131.77) scale(1.6469999999999998) rotate(0)"><rect width="20" height="2" fill="#FFFFFF"/><rect y="4" width="20" height="2" fill="#FFFFFF"/><rect y="8" width="20" height="2" fill="#FFFFFF"/><rect y="12" width="20" height="2" fill="#FFFFFF"/><rect y="16" width="20" height="2" fill="#FFFFFF"/></g><rect x="790.63" y="164.71" width="32.94" height="32.94" fill="#FFFFFF"/><polygon points="790.63,164.71 823.5699999999999,164.71 790.63,197.65" fill="#00FFFF"/><rect x="823.57" y="164.71" width="32.94" height="32.94" fill="#000064"/><polygon points="823.57,164.71 856.51,164.71 856.51,197.65" fill="#00FFFF"/><rect x="856.5142857142857" y="131.77142857142857" width="65.88571428571429" height="65.88571428571429" fill="#ffffff"/><rect x="856.51" y="131.77" width="32.94" height="32.94" fill="#00FFFF"/><g transform="translate(856.51,131.77) scale(1.6469999999999998) rotate(0)"><path d="M10 0H20V10L10 20H0V10L10 0Z" fill="#FFFFFF"/></g><rect x="889.46" y="131.77" width="32.94" height="32.94" fill="#00FFFF"/><g transform="translate(889.46,131.77) scale(1.6469999999999998) rotate(0)"><path fill-rule="evenodd" clip-rule="evenodd" d="M10 20C15.5228 20 20 15.5228 20 10C20 4.47715 15.5228 0 10 0C4.47715 0 0 4.47715 0 10C0 15.5228 4.47715 20 10 20ZM10 17C13.866 17 17 13.866 17 10C17 6.13401 13.866 3 10 3C6.13401 3 3 6.13401 3 10C3 13.866 6.13401 17 10 17Z" fill="#000064"/></g><rect x="856.51" y="164.71" width="32.94" height="32.94" fill="#00FFFF"/><g transform="translate(856.51,164.71) scale(1.6469999999999998) rotate(0)"><path d="M19.9981 0.00193429L3.72652 -7.68637e-07L8.4784 4.75382L0 13.2345L6.76585 20L15.2462 11.5208L20 16.2746L19.9981 0.00193429Z" fill="#000064"/></g><rect x="889.46" y="164.71" width="32.94" height="32.94" fill="#000064"/><g transform="translate(889.46,164.71) scale(1.6469999999999998) rotate(0)"><path d="M13 0H20V7L7 20H0V13L13 0Z" fill="#FFFFFF"/></g><rect x="922.4" y="131.77142857142857" width="65.88571428571429" height="65.88571428571429" fill="#ffffff"/><rect x="922.4" y="131.77" width="32.94" height="32.94" fill="#000064"/><rect x="922.4" y="131.77" width="32.94" height="32.94" fill="#00FFFF"/><rect x="955.34" y="131.77" width="32.94" height="32.94" fill="#00FFFF"/><g transform="translate(955.34,131.77) scale(1.6469999999999998) rotate(0)"><rect width="20" height="2" fill="#00FFFF"/><rect y="4" width="20" height="2" fill="#00FFFF"/><rect y="8" width="20" height="2" fill="#00FFFF"/><rect y="12" width="20" height="2" fill="#00FFFF"/><rect y="16" width="20" height="2" fill="#00FFFF"/></g><rect x="922.4" y="164.71" width="32.94" height="32.94" fill="#000064"/><rect x="922.4" y="164.71" width="32.94" height="32.94" fill="#000064"/><rect x="955.34" y="164.71" width="32.94" height="32.94" fill="#00FFFF"/><rect x="955.34" y="164.71" width="32.94" height="32.94" fill="#000064"/><rect x="988.2857142857143" y="131.77142857142857" width="65.88571428571429" height="65.88571428571429" fill="#ffffff"/><rect x="988.29" y="131.77" width="32.94" height="32.94" fill="#FFFFFF"/><polygon points="1021.23,131.77 1021.23,164.71 988.29,164.71" fill="#FFFFFF"/><rect x="1021.23" y="131.77" width="32.94" height="32.94" fill="#00FFFF"/><path d="M 1021.23 164.71 A 32.94 32.94 0 0 0 1054.17 131.77 L 1021.23 131.77" fill="#000064"/><rect x="988.29" y="164.71" width="32.94" height="32.94" fill="#00FFFF"/><g transform="translate(988.29,164.71) scale(1.6469999999999998) rotate(0)"><path d="M13 0H20V7L7 20H0V13L13 0Z" fill="#00FFFF"/></g><rect x="1021.23" y="164.71" width="32.94" height="32.94" fill="#FFFFFF"/><g transform="translate(1021.23,164.71) scale(1.6469999999999998) rotate(0)"><path d="M10 0H20L0 20V10L10 0Z" fill="#00FFFF"/><path d="M20 10V20H10L20 10Z" fill="#00FFFF"/></g><rect x="1054.17" y="131.77" width="65.89" height="65.89" fill="#000064"/><circle cx="1087.115" cy="164.715" r="32.945" fill="#000064"/><rect x="0" y="197.65714285714284" width="65.88571428571429" height="65.88571428571429" fill="#ffffff"/><rect x="0" y="197.66" width="32.94" height="32.94" fill="#00FFFF"/><g transform="translate(0,197.66) scale(1.6469999999999998) rotate(0)"><path d="M10 0H20L0 20V10L10 0Z" fill="#000064"/><path d="M20 10V20H10L20 10Z" fill="#000064"/></g><rect x="32.94" y="197.66" width="32.94" height="32.94" fill="#FFFFFF"/><g transform="translate(32.94,197.66) scale(1.6469999999999998) rotate(0)"><path d="M13 0H20V7L7 20H0V13L13 0Z" fill="#FFFFFF"/></g><rect x="0" y="230.6" width="32.94" height="32.94" fill="#FFFFFF"/><g transform="translate(0,230.6) scale(1.6469999999999998) rotate(0)"><path d="M5 0H10L5 5L0 10V5L5 0Z" fill="#00FFFF"/><path d="M20 15V20H15L20 15Z" fill="#00FFFF"/><path d="M20 5V10L15 15L10 20H5L20 5Z" fill="#00FFFF"/><path d="M15 0H20L5 15.0002L0 20.0002V15.0002L15 0Z" fill="#00FFFF"/></g><rect x="32.94" y="230.6" width="32.94" height="32.94" fill="#000064"/><g transform="translate(32.94,230.6) scale(1.6469999999999998) rotate(0)"><path fill-rule="evenodd" clip-rule="evenodd" d="M10 20C15.5228 20 20 15.5228 20 10C20 4.47715 15.5228 0 10 0C4.47715 0 0 4.47715 0 10C0 15.5228 4.47715 20 10 20ZM10 17C13.866 17 17 13.866 17 10C17 6.13401 13.866 3 10 3C6.13401 3 3 6.13401 3 10C3 13.866 6.13401 17 10 17Z" fill="#000064"/></g><rect x="65.88571428571429" y="197.65714285714284" width="65.88571428571429" height="65.88571428571429" fill="#ffffff"/><rect x="65.89" y="197.66" width="32.94" height="32.94" fill="#FFFFFF"/><path d="M 65.89 197.66 A 32.94 32.94 0 0 0 98.83 230.6 L 98.83 197.66" fill="#000064"/><rect x="98.83" y="197.66" width="32.94" height="32.94" fill="#000064"/><g transform="translate(98.83,197.66) scale(1.6469999999999998) rotate(0)"><path d="M10 0H20L0 20V10L10 0Z" fill="#FFFFFF"/><path d="M20 10V20H10L20 10Z" fill="#FFFFFF"/></g><rect x="65.89" y="230.6" width="32.94" height="32.94" fill="#FFFFFF"/><g transform="translate(65.89,230.6) scale(1.6469999999999998) rotate(0)"><rect width="20" height="2" fill="#FFFFFF"/><rect y="4" width="20" height="2" fill="#FFFFFF"/><rect y="8" width="20" height="2" fill="#FFFFFF"/><rect y="12" width="20" height="2" fill="#FFFFFF"/><rect y="16" width="20" height="2" fill="#FFFFFF"/></g><rect x="98.83" y="230.6" width="32.94" height="32.94" fill="#FFFFFF"/><g transform="translate(98.83,230.6) scale(1.6469999999999998) rotate(0)"><path d="M13 0H20V7L7 20H0V13L13 0Z" fill="#FFFFFF"/></g><rect x="131.77" y="197.66" width="65.89" height="65.89" fill="#00FFFF"/><g transform="translate(131.77,197.66) scale(3.2945) rotate(0)"><path d="M5 0H10L5 5L0 10V5L5 0Z" fill="#00FFFF"/><path d="M20 15V20H15L20 15Z" fill="#00FFFF"/><path d="M20 5V10L15 15L10 20H5L20 5Z" fill="#00FFFF"/><path d="M15 0H20L5 15.0002L0 20.0002V15.0002L15 0Z" fill="#00FFFF"/></g><rect x="197.66" y="197.66" width="65.89" height="65.89" fill="#FFFFFF"/><g transform="translate(197.66,197.66) scale(3.2945) rotate(0)"><path d="M13 0H20V7L7 20H0V13L13 0Z" fill="#FFFFFF"/></g><rect x="263.54" y="197.66" width="65.89" height="65.89" fill="#FFFFFF"/><g transform="translate(263.54,197.66) scale(3.2945) rotate(0)"><rect width="20" height="10" fill="#FFFFFF"/></g><rect x="329.42857142857144" y="197.65714285714284" width="65.88571428571429" height="65.88571428571429" fill="#ffffff"/><rect x="329.43" y="197.66" width="32.94" height="32.94" fill="#00FFFF"/><g transform="translate(329.43,197.66) scale(1.6469999999999998) rotate(0)"><path d="M13 0H20V7L7 20H0V13L13 0Z" fill="#FFFFFF"/></g><rect x="362.37" y="197.66" width="32.94" height="32.94" fill="#000064"/><g transform="translate(362.37,197.66) scale(1.6469999999999998) rotate(0)"><rect width="20" height="10" fill="#000064"/></g><rect x="329.43" y="230.6" width="32.94" height="32.94" fill="#00FFFF"/><g transform="translate(329.43,230.6) scale(1.6469999999999998) rotate(0)"><path d="M13 0H20V7L7 20H0V13L13 0Z" fill="#000064"/></g><rect x="362.37" y="230.6" width="32.94" height="32.94" fill="#FFFFFF"/><g transform="translate(362.37,230.6) scale(1.6469999999999998) rotate(0)"><path d="M10 0H20L0 20V10L10 0Z" fill="#000064"/><path d="M20 10V20H10L20 10Z" fill="#000064"/></g><rect x="395.31" y="197.66" width="65.89" height="65.89" fill="#00FFFF"/><g transform="translate(395.31,197.66) scale(3.2945) rotate(0)"><path d="M13 0H20V7L7 20H0V13L13 0Z" fill="#00FFFF"/></g><rect x="461.2" y="197.66" width="65.89" height="65.89" fill="#00FFFF"/><rect x="461.2" y="197.66" width="65.89" height="65.89" fill="#FFFFFF"/><rect x="527.0857142857143" y="197.65714285714284" width="65.88571428571429" height="65.88571428571429" fill="#ffffff"/><rect x="527.09" y="197.66" width="32.94" height="32.94" fill="#000064"/><g transform="translate(527.09,197.66) scale(1.6469999999999998) rotate(0)"><rect width="2" height="20" fill="#000064"/><rect x="4" width="2" height="20" fill="#000064"/><rect x="8" width="2" height="20" fill="#000064"/><rect x="12" width="2" height="20" fill="#000064"/><rect x="16" width="2" height="20" fill="#000064"/></g><rect x="560.03" y="197.66" width="32.94" height="32.94" fill="#00FFFF"/><g transform="translate(560.03,197.66) scale(1.6469999999999998) rotate(0)"><path d="M10 0H20L0 20V10L10 0Z" fill="#000064"/><path d="M20 10V20H10L20 10Z" fill="#000064"/></g><rect x="527.09" y="230.6" width="32.94" height="32.94" fill="#00FFFF"/><polygon points="527.09,230.6 560.03,230.6 560.03,263.53999999999996" fill="#FFFFFF"/><rect x="560.03" y="230.6" width="32.94" height="32.94" fill="#FFFFFF"/><polygon points="592.97,230.6 592.97,263.53999999999996 560.03,263.53999999999996" fill="#00FFFF"/><rect x="592.9714285714285" y="197.65714285714284" width="65.88571428571429" height="65.88571428571429" fill="#ffffff"/><rect x="592.97" y="197.66" width="32.94" height="32.94" fill="#000064"/><path d="M 592.97 197.66 A 32.94 32.94 0 0 1  625.9100000000001 230.6 L 592.97 197.66 A 32.94 32.94 0 0 0 625.9100000000001 230.6" fill="#000064"/><rect x="625.91" y="197.66" width="32.94" height="32.94" fill="#FFFFFF"/><g transform="translate(625.91,197.66) scale(1.6469999999999998) rotate(0)"><path fill-rule="evenodd" clip-rule="evenodd" d="M10 20C15.5228 20 20 15.5228 20 10C20 4.47715 15.5228 0 10 0C4.47715 0 0 4.47715 0 10C0 15.5228 4.47715 20 10 20ZM10 17C13.866 17 17 13.866 17 10C17 6.13401 13.866 3 10 3C6.13401 3 3 6.13401 3 10C3 13.866 6.13401 17 10 17Z" fill="#000064"/></g><rect x="592.97" y="230.6" width="32.94" height="32.94" fill="#FFFFFF"/><g transform="translate(592.97,230.6) scale(1.6469999999999998) rotate(0)"><path d="M10 0H20L0 20V10L10 0Z" fill="#000064"/><path d="M20 10V20H10L20 10Z" fill="#000064"/></g><rect x="625.91" y="230.6" width="32.94" height="32.94" fill="#FFFFFF"/><g transform="translate(625.91,230.6) scale(1.6469999999999998) rotate(0)"><path d="M5 0H10L5 5L0 10V5L5 0Z" fill="#000064"/><path d="M20 15V20H15L20 15Z" fill="#000064"/><path d="M20 5V10L15 15L10 20H5L20 5Z" fill="#000064"/><path d="M15 0H20L5 15.0002L0 20.0002V15.0002L15 0Z" fill="#000064"/></g><rect x="658.86" y="197.66" width="65.89" height="65.89" fill="#00FFFF"/><circle cx="691.8050000000001" cy="230.605" r="32.945" fill="#00FFFF"/><rect x="724.7428571428571" y="197.65714285714284" width="65.88571428571429" height="65.88571428571429" fill="#ffffff"/><rect x="724.74" y="197.66" width="32.94" height="32.94" fill="#FFFFFF"/><g transform="translate(724.74,197.66) scale(1.6469999999999998) rotate(0)"><rect width="20" height="10" fill="#00FFFF"/></g><rect x="757.69" y="197.66" width="32.94" height="32.94" fill="#FFFFFF"/><path d="M 757.69 197.66 A 32.94 32.94 0 0 1 790.6300000000001 230.6 L 757.69 230.6" fill="#000064"/><rect x="724.74" y="230.6" width="32.94" height="32.94" fill="#000064"/><g transform="translate(724.74,230.6) scale(1.6469999999999998) rotate(0)"><rect width="20" height="2" fill="#000064"/><rect y="4" width="20" height="2" fill="#000064"/><rect y="8" width="20" height="2" fill="#000064"/><rect y="12" width="20" height="2" fill="#000064"/><rect y="16" width="20" height="2" fill="#000064"/></g><rect x="757.69" y="230.6" width="32.94" height="32.94" fill="#FFFFFF"/><g transform="translate(757.69,230.6) scale(1.6469999999999998) rotate(0)"><rect width="2" height="20" fill="#00FFFF"/><rect x="4" width="2" height="20" fill="#00FFFF"/><rect x="8" width="2" height="20" fill="#00FFFF"/><rect x="12" width="2" height="20" fill="#00FFFF"/><rect x="16" width="2" height="20" fill="#00FFFF"/></g><rect x="790.6285714285714" y="197.65714285714284" width="65.88571428571429" height="65.88571428571429" fill="#ffffff"/><rect x="790.63" y="197.66" width="32.94" height="32.94" fill="#00FFFF"/><g transform="translate(790.63,197.66) scale(1.6469999999999998) rotate(0)"><rect width="20" height="10" fill="#FFFFFF"/></g><rect x="823.57" y="197.66" width="32.94" height="32.94" fill="#FFFFFF"/><g transform="translate(823.57,197.66) scale(1.6469999999999998) rotate(0)"><rect width="20" height="2" fill="#FFFFFF"/><rect y="4" width="20" height="2" fill="#FFFFFF"/><rect y="8" width="20" height="2" fill="#FFFFFF"/><rect y="12" width="20" height="2" fill="#FFFFFF"/><rect y="16" width="20" height="2" fill="#FFFFFF"/></g><rect x="790.63" y="230.6" width="32.94" height="32.94" fill="#000064"/><g transform="translate(790.63,230.6) scale(1.6469999999999998) rotate(0)"><path d="M5 0H10L5 5L0 10V5L5 0Z" fill="#000064"/><path d="M20 15V20H15L20 15Z" fill="#000064"/><path d="M20 5V10L15 15L10 20H5L20 5Z" fill="#000064"/><path d="M15 0H20L5 15.0002L0 20.0002V15.0002L15 0Z" fill="#000064"/></g><rect x="823.57" y="230.6" width="32.94" height="32.94" fill="#00FFFF"/><polygon points="823.57,230.6 856.51,230.6 856.51,263.53999999999996" fill="#000064"/><rect x="856.5142857142857" y="197.65714285714284" width="65.88571428571429" height="65.88571428571429" fill="#ffffff"/><rect x="856.51" y="197.66" width="32.94" height="32.94" fill="#FFFFFF"/><polygon points="856.51,197.66 889.45,230.6 856.51,230.6" fill="#000064"/><rect x="889.46" y="197.66" width="32.94" height="32.94" fill="#FFFFFF"/><g transform="translate(889.46,197.66) scale(1.6469999999999998) rotate(0)"><path d="M13 0H20V7L7 20H0V13L13 0Z" fill="#FFFFFF"/></g><rect x="856.51" y="230.6" width="32.94" height="32.94" fill="#000064"/><g transform="translate(856.51,230.6) scale(1.6469999999999998) rotate(0)"><path d="M19.9981 0.00193429L3.72652 -7.68637e-07L8.4784 4.75382L0 13.2345L6.76585 20L15.2462 11.5208L20 16.2746L19.9981 0.00193429Z" fill="#000064"/></g><rect x="889.46" y="230.6" width="32.94" height="32.94" fill="#FFFFFF"/><g transform="translate(889.46,230.6) scale(1.6469999999999998) rotate(0)"><path d="M10 0H20L0 20V10L10 0Z" fill="#FFFFFF"/><path d="M20 10V20H10L20 10Z" fill="#FFFFFF"/></g><rect x="922.4" y="197.65714285714284" width="65.88571428571429" height="65.88571428571429" fill="#ffffff"/><rect x="922.4" y="197.66" width="32.94" height="32.94" fill="#FFFFFF"/><g transform="translate(922.4,197.66) scale(1.6469999999999998) rotate(0)"><path d="M10 0H20L0 20V10L10 0Z" fill="#00FFFF"/><path d="M20 10V20H10L20 10Z" fill="#00FFFF"/></g><rect x="955.34" y="197.66" width="32.94" height="32.94" fill="#000064"/><g transform="translate(955.34,197.66) scale(1.6469999999999998) rotate(0)"><rect width="20" height="10" fill="#FFFFFF"/></g><rect x="922.4" y="230.6" width="32.94" height="32.94" fill="#000064"/><path d="M 922.4 263.53999999999996 A 32.94 32.94 0 0 1  955.3399999999999 230.6 L 922.4 263.53999999999996 A 32.94 32.94 0 0 0 955.3399999999999 230.6" fill="#000064"/><rect x="955.34" y="230.6" width="32.94" height="32.94" fill="#000064"/><path d="M 955.34 263.53999999999996 A 32.94 32.94 0 0 0 988.28 230.6 L 955.34 230.6" fill="#FFFFFF"/><rect x="988.29" y="197.66" width="65.89" height="65.89" fill="#FFFFFF"/><rect x="988.29" y="197.66" width="65.89" height="65.89" fill="#000064"/><rect x="1054.17" y="197.66" width="65.89" height="65.89" fill="#FFFFFF"/><rect x="1054.17" y="197.66" width="65.89" height="65.89" fill="#000064"/><rect x="0" y="263.54" width="65.89" height="65.89" fill="#00FFFF"/><g transform="translate(0,263.54) scale(3.2945) rotate(0)"><path d="M10 0H20V10L10 20H0V10L10 0Z" fill="#FFFFFF"/></g><rect x="65.88571428571429" y="263.54285714285714" width="65.88571428571429" height="65.88571428571429" fill="#ffffff"/><rect x="65.89" y="263.54" width="32.94" height="32.94" fill="#00FFFF"/><g transform="translate(65.89,263.54) scale(1.6469999999999998) rotate(0)"><rect width="20" height="10" fill="#00FFFF"/></g><rect x="98.83" y="263.54" width="32.94" height="32.94" fill="#FFFFFF"/><path d="M 98.83 296.48 A 32.94 32.94 0 0 1  131.76999999999998 263.54 L 131.76999999999998 296.48" fill="#00FFFF"/><rect x="65.89" y="296.49" width="32.94" height="32.94" fill="#000064"/><g transform="translate(65.89,296.49) scale(1.6469999999999998) rotate(0)"><path fill-rule="evenodd" clip-rule="evenodd" d="M10 20C15.5228 20 20 15.5228 20 10C20 4.47715 15.5228 0 10 0C4.47715 0 0 4.47715 0 10C0 15.5228 4.47715 20 10 20ZM10 17C13.866 17 17 13.866 17 10C17 6.13401 13.866 3 10 3C6.13401 3 3 6.13401 3 10C3 13.866 6.13401 17 10 17Z" fill="#00FFFF"/></g><rect x="98.83" y="296.49" width="32.94" height="32.94" fill="#000064"/><g transform="translate(98.83,296.49) scale(1.6469999999999998) rotate(0)"><rect width="20" height="2" fill="#FFFFFF"/><rect y="4" width="20" height="2" fill="#FFFFFF"/><rect y="8" width="20" height="2" fill="#FFFFFF"/><rect y="12" width="20" height="2" fill="#FFFFFF"/><rect y="16" width="20" height="2" fill="#FFFFFF"/></g><rect x="131.77" y="263.54" width="65.89" height="65.89" fill="#FFFFFF"/><rect x="131.77" y="263.54" width="65.89" height="65.89" fill="#FFFFFF"/><rect x="197.65714285714284" y="263.54285714285714" width="65.88571428571429" height="65.88571428571429" fill="#ffffff"/><rect x="197.66" y="263.54" width="32.94" height="32.94" fill="#000064"/><g transform="translate(197.66,263.54) scale(1.6469999999999998) rotate(0)"><path d="M5 0H10L5 5L0 10V5L5 0Z" fill="#000064"/><path d="M20 15V20H15L20 15Z" fill="#000064"/><path d="M20 5V10L15 15L10 20H5L20 5Z" fill="#000064"/><path d="M15 0H20L5 15.0002L0 20.0002V15.0002L15 0Z" fill="#000064"/></g><rect x="230.6" y="263.54" width="32.94" height="32.94" fill="#FFFFFF"/><g transform="translate(230.6,263.54) scale(1.6469999999999998) rotate(0)"><path d="M10 0H20V10L10 20H0V10L10 0Z" fill="#00FFFF"/></g><rect x="197.66" y="296.49" width="32.94" height="32.94" fill="#000064"/><g transform="translate(197.66,296.49) scale(1.6469999999999998) rotate(0)"><path fill-rule="evenodd" clip-rule="evenodd" d="M10 20C15.5228 20 20 15.5228 20 10C20 4.47715 15.5228 0 10 0C4.47715 0 0 4.47715 0 10C0 15.5228 4.47715 20 10 20ZM10 17C13.866 17 17 13.866 17 10C17 6.13401 13.866 3 10 3C6.13401 3 3 6.13401 3 10C3 13.866 6.13401 17 10 17Z" fill="#00FFFF"/></g><rect x="230.6" y="296.49" width="32.94" height="32.94" fill="#000064"/><g transform="translate(230.6,296.49) scale(1.6469999999999998) rotate(0)"><path d="M10 0H20V10L10 20H0V10L10 0Z" fill="#00FFFF"/></g><rect x="263.54" y="263.54" width="65.89" height="65.89" fill="#000064"/><g transform="translate(263.54,263.54) scale(3.2945) rotate(0)"><path d="M10 0H20V10L10 20H0V10L10 0Z" fill="#00FFFF"/></g><rect x="329.43" y="263.54" width="65.89" height="65.89" fill="#FFFFFF"/><g transform="translate(329.43,263.54) scale(3.2945) rotate(0)"><path d="M13 0H20V7L7 20H0V13L13 0Z" fill="#FFFFFF"/></g><rect x="395.31" y="263.54" width="65.89" height="65.89" fill="#FFFFFF"/><path d="M 395.31 329.43 A 65.89 65.89 0 0 0 461.2 263.54 L 395.31 263.54" fill="#000064"/><rect x="461.2" y="263.54" width="65.89" height="65.89" fill="#FFFFFF"/><circle cx="494.145" cy="296.485" r="32.945" fill="#FFFFFF"/><rect x="527.09" y="263.54" width="65.89" height="65.89" fill="#000064"/><g transform="translate(527.09,263.54) scale(3.2945) rotate(0)"><path fill-rule="evenodd" clip-rule="evenodd" d="M10 20C15.5228 20 20 15.5228 20 10C20 4.47715 15.5228 0 10 0C4.47715 0 0 4.47715 0 10C0 15.5228 4.47715 20 10 20ZM10 17C13.866 17 17 13.866 17 10C17 6.13401 13.866 3 10 3C6.13401 3 3 6.13401 3 10C3 13.866 6.13401 17 10 17Z" fill="#000064"/></g><rect x="592.9714285714285" y="263.54285714285714" width="65.88571428571429" height="65.88571428571429" fill="#ffffff"/><rect x="592.97" y="263.54" width="32.94" height="32.94" fill="#000064"/><g transform="translate(592.97,263.54) scale(1.6469999999999998) rotate(0)"><rect width="2" height="20" fill="#000064"/><rect x="4" width="2" height="20" fill="#000064"/><rect x="8" width="2" height="20" fill="#000064"/><rect x="12" width="2" height="20" fill="#000064"/><rect x="16" width="2" height="20" fill="#000064"/></g><rect x="625.91" y="263.54" width="32.94" height="32.94" fill="#FFFFFF"/><rect x="625.91" y="263.54" width="32.94" height="32.94" fill="#FFFFFF"/><rect x="592.97" y="296.49" width="32.94" height="32.94" fill="#000064"/><g transform="translate(592.97,296.49) scale(1.6469999999999998) rotate(0)"><path d="M5 0H10L5 5L0 10V5L5 0Z" fill="#FFFFFF"/><path d="M20 15V20H15L20 15Z" fill="#FFFFFF"/><path d="M20 5V10L15 15L10 20H5L20 5Z" fill="#FFFFFF"/><path d="M15 0H20L5 15.0002L0 20.0002V15.0002L15 0Z" fill="#FFFFFF"/></g><rect x="625.91" y="296.49" width="32.94" height="32.94" fill="#000064"/><circle cx="642.38" cy="312.96000000000004" r="16.47" fill="#00FFFF"/><rect x="658.86" y="263.54" width="65.89" height="65.89" fill="#00FFFF"/><g transform="translate(658.86,263.54) scale(3.2945) rotate(0)"><path d="M10 0H20L0 20V10L10 0Z" fill="#FFFFFF"/><path d="M20 10V20H10L20 10Z" fill="#FFFFFF"/></g><rect x="724.74" y="263.54" width="65.89" height="65.89" fill="#00FFFF"/><g transform="translate(724.74,263.54) scale(3.2945) rotate(0)"><path d="M10 0H20L0 20V10L10 0Z" fill="#000064"/><path d="M20 10V20H10L20 10Z" fill="#000064"/></g><rect x="790.6285714285714" y="263.54285714285714" width="65.88571428571429" height="65.88571428571429" fill="#ffffff"/><rect x="790.63" y="263.54" width="32.94" height="32.94" fill="#FFFFFF"/><circle cx="807.1" cy="280.01" r="16.47" fill="#00FFFF"/><rect x="823.57" y="263.54" width="32.94" height="32.94" fill="#FFFFFF"/><g transform="translate(823.57,263.54) scale(1.6469999999999998) rotate(0)"><rect width="2" height="20" fill="#00FFFF"/><rect x="4" width="2" height="20" fill="#00FFFF"/><rect x="8" width="2" height="20" fill="#00FFFF"/><rect x="12" width="2" height="20" fill="#00FFFF"/><rect x="16" width="2" height="20" fill="#00FFFF"/></g><rect x="790.63" y="296.49" width="32.94" height="32.94" fill="#000064"/><polygon points="790.63,296.49 823.5699999999999,329.43 790.63,329.43" fill="#00FFFF"/><rect x="823.57" y="296.49" width="32.94" height="32.94" fill="#000064"/><g transform="translate(823.57,296.49) scale(1.6469999999999998) rotate(0)"><rect width="20" height="10" fill="#FFFFFF"/></g><rect x="856.51" y="263.54" width="65.89" height="65.89" fill="#00FFFF"/><g transform="translate(856.51,263.54) scale(3.2945) rotate(0)"><path d="M10 0H20V10L10 20H0V10L10 0Z" fill="#00FFFF"/></g><rect x="922.4" y="263.54" width="65.89" height="65.89" fill="#00FFFF"/><g transform="translate(922.4,263.54) scale(3.2945) rotate(0)"><path d="M13 0H20V7L7 20H0V13L13 0Z" fill="#FFFFFF"/></g><rect x="988.29" y="263.54" width="65.89" height="65.89" fill="#000064"/><g transform="translate(988.29,263.54) scale(3.2945) rotate(0)"><rect width="20" height="10" fill="#FFFFFF"/></g><rect x="1054.17" y="263.54" width="65.89" height="65.89" fill="#00FFFF"/><g transform="translate(1054.17,263.54) scale(3.2945) rotate(0)"><path d="M10 0H20L0 20V10L10 0Z" fill="#000064"/><path d="M20 10V20H10L20 10Z" fill="#000064"/></g><rect x="0" y="329.42857142857144" width="65.88571428571429" height="65.88571428571429" fill="#ffffff"/><rect x="0" y="329.43" width="32.94" height="32.94" fill="#000064"/><path d="M 0 362.37 A 32.94 32.94 0 0 1  32.94 329.43 L 32.94 362.37" fill="#FFFFFF"/><rect x="32.94" y="329.43" width="32.94" height="32.94" fill="#000064"/><path d="M 32.94 362.37 A 32.94 32.94 0 0 1  65.88 329.43 L 65.88 362.37" fill="#00FFFF"/><rect x="0" y="362.37" width="32.94" height="32.94" fill="#00FFFF"/><rect x="0" y="362.37" width="32.94" height="32.94" fill="#00FFFF"/><rect x="32.94" y="362.37" width="32.94" height="32.94" fill="#00FFFF"/><circle cx="49.41" cy="378.84000000000003" r="16.47" fill="#000064"/><rect x="65.88571428571429" y="329.42857142857144" width="65.88571428571429" height="65.88571428571429" fill="#ffffff"/><rect x="65.89" y="329.43" width="32.94" height="32.94" fill="#000064"/><path d="M 65.89 362.37 A 32.94 32.94 0 0 0 98.83 329.43 L 65.89 329.43" fill="#000064"/><rect x="98.83" y="329.43" width="32.94" height="32.94" fill="#FFFFFF"/><path d="M 98.83 329.43 A 32.94 32.94 0 0 0 131.76999999999998 362.37 L 131.76999999999998 329.43" fill="#00FFFF"/><rect x="65.89" y="362.37" width="32.94" height="32.94" fill="#FFFFFF"/><g transform="translate(65.89,362.37) scale(1.6469999999999998) rotate(0)"><path fill-rule="evenodd" clip-rule="evenodd" d="M10 20C15.5228 20 20 15.5228 20 10C20 4.47715 15.5228 0 10 0C4.47715 0 0 4.47715 0 10C0 15.5228 4.47715 20 10 20ZM10 17C13.866 17 17 13.866 17 10C17 6.13401 13.866 3 10 3C6.13401 3 3 6.13401 3 10C3 13.866 6.13401 17 10 17Z" fill="#000064"/></g><rect x="98.83" y="362.37" width="32.94" height="32.94" fill="#000064"/><path d="M 98.83 362.37 A 32.94 32.94 0 0 0 131.76999999999998 395.31 L 131.76999999999998 362.37" fill="#FFFFFF"/><rect x="131.77142857142857" y="329.42857142857144" width="65.88571428571429" height="65.88571428571429" fill="#ffffff"/><rect x="131.77" y="329.43" width="32.94" height="32.94" fill="#000064"/><g transform="translate(131.77,329.43) scale(1.6469999999999998) rotate(0)"><rect width="2" height="20" fill="#00FFFF"/><rect x="4" width="2" height="20" fill="#00FFFF"/><rect x="8" width="2" height="20" fill="#00FFFF"/><rect x="12" width="2" height="20" fill="#00FFFF"/><rect x="16" width="2" height="20" fill="#00FFFF"/></g><rect x="164.71" y="329.43" width="32.94" height="32.94" fill="#FFFFFF"/><g transform="translate(164.71,329.43) scale(1.6469999999999998) rotate(0)"><path d="M5 0H10L5 5L0 10V5L5 0Z" fill="#00FFFF"/><path d="M20 15V20H15L20 15Z" fill="#00FFFF"/><path d="M20 5V10L15 15L10 20H5L20 5Z" fill="#00FFFF"/><path d="M15 0H20L5 15.0002L0 20.0002V15.0002L15 0Z" fill="#00FFFF"/></g><rect x="131.77" y="362.37" width="32.94" height="32.94" fill="#000064"/><circle cx="148.24" cy="378.84000000000003" r="16.47" fill="#000064"/><rect x="164.71" y="362.37" width="32.94" height="32.94" fill="#FFFFFF"/><g transform="translate(164.71,362.37) scale(1.6469999999999998) rotate(0)"><path fill-rule="evenodd" clip-rule="evenodd" d="M10 20C15.5228 20 20 15.5228 20 10C20 4.47715 15.5228 0 10 0C4.47715 0 0 4.47715 0 10C0 15.5228 4.47715 20 10 20ZM10 17C13.866 17 17 13.866 17 10C17 6.13401 13.866 3 10 3C6.13401 3 3 6.13401 3 10C3 13.866 6.13401 17 10 17Z" fill="#000064"/></g><rect x="197.65714285714284" y="329.42857142857144" width="65.88571428571429" height="65.88571428571429" fill="#ffffff"/><rect x="197.66" y="329.43" width="32.94" height="32.94" fill="#00FFFF"/><g transform="translate(197.66,329.43) scale(1.6469999999999998) rotate(0)"><path d="M5 0H10L5 5L0 10V5L5 0Z" fill="#00FFFF"/><path d="M20 15V20H15L20 15Z" fill="#00FFFF"/><path d="M20 5V10L15 15L10 20H5L20 5Z" fill="#00FFFF"/><path d="M15 0H20L5 15.0002L0 20.0002V15.0002L15 0Z" fill="#00FFFF"/></g><rect x="230.6" y="329.43" width="32.94" height="32.94" fill="#000064"/><circle cx="247.07" cy="345.9" r="16.47" fill="#00FFFF"/><rect x="197.66" y="362.37" width="32.94" height="32.94" fill="#000064"/><g transform="translate(197.66,362.37) scale(1.6469999999999998) rotate(0)"><rect width="2" height="20" fill="#FFFFFF"/><rect x="4" width="2" height="20" fill="#FFFFFF"/><rect x="8" width="2" height="20" fill="#FFFFFF"/><rect x="12" width="2" height="20" fill="#FFFFFF"/><rect x="16" width="2" height="20" fill="#FFFFFF"/></g><rect x="230.6" y="362.37" width="32.94" height="32.94" fill="#00FFFF"/><circle cx="247.07" cy="378.84000000000003" r="16.47" fill="#FFFFFF"/><rect x="263.54" y="329.43" width="65.89" height="65.89" fill="#000064"/><polygon points="263.54,329.43 329.43,329.43 263.54,395.32" fill="#FFFFFF"/><rect x="329.42857142857144" y="329.42857142857144" width="65.88571428571429" height="65.88571428571429" fill="#ffffff"/><rect x="329.43" y="329.43" width="32.94" height="32.94" fill="#FFFFFF"/><g transform="translate(329.43,329.43) scale(1.6469999999999998) rotate(0)"><path d="M10 0H20L0 20V10L10 0Z" fill="#00FFFF"/><path d="M20 10V20H10L20 10Z" fill="#00FFFF"/></g><rect x="362.37" y="329.43" width="32.94" height="32.94" fill="#FFFFFF"/><g transform="translate(362.37,329.43) scale(1.6469999999999998) rotate(0)"><rect width="20" height="10" fill="#00FFFF"/></g><rect x="329.43" y="362.37" width="32.94" height="32.94" fill="#00FFFF"/><g transform="translate(329.43,362.37) scale(1.6469999999999998) rotate(0)"><path d="M10 0H20V10L10 20H0V10L10 0Z" fill="#FFFFFF"/></g><rect x="362.37" y="362.37" width="32.94" height="32.94" fill="#00FFFF"/><g transform="translate(362.37,362.37) scale(1.6469999999999998) rotate(0)"><path d="M19.9981 0.00193429L3.72652 -7.68637e-07L8.4784 4.75382L0 13.2345L6.76585 20L15.2462 11.5208L20 16.2746L19.9981 0.00193429Z" fill="#000064"/></g><rect x="395.31" y="329.43" width="65.89" height="65.89" fill="#FFFFFF"/><path d="M 395.31 329.43 A 65.89 65.89 0 0 1 461.2 395.32 L 395.31 395.32" fill="#FFFFFF"/><rect x="461.2" y="329.42857142857144" width="65.88571428571429" height="65.88571428571429" fill="#ffffff"/><rect x="461.2" y="329.43" width="32.94" height="32.94" fill="#000064"/><g transform="translate(461.2,329.43) scale(1.6469999999999998) rotate(0)"><rect width="2" height="20" fill="#00FFFF"/><rect x="4" width="2" height="20" fill="#00FFFF"/><rect x="8" width="2" height="20" fill="#00FFFF"/><rect x="12" width="2" height="20" fill="#00FFFF"/><rect x="16" width="2" height="20" fill="#00FFFF"/></g><rect x="494.14" y="329.43" width="32.94" height="32.94" fill="#00FFFF"/><g transform="translate(494.14,329.43) scale(1.6469999999999998) rotate(0)"><path d="M10 0H20L0 20V10L10 0Z" fill="#000064"/><path d="M20 10V20H10L20 10Z" fill="#000064"/></g><rect x="461.2" y="362.37" width="32.94" height="32.94" fill="#00FFFF"/><path d="M 461.2 395.31 A 32.94 32.94 0 0 1  494.14 362.37 L 461.2 395.31 A 32.94 32.94 0 0 0 494.14 362.37" fill="#000064"/><rect x="494.14" y="362.37" width="32.94" height="32.94" fill="#FFFFFF"/><g transform="translate(494.14,362.37) scale(1.6469999999999998) rotate(0)"><rect width="20" height="10" fill="#FFFFFF"/></g><rect x="527.0857142857143" y="329.42857142857144" width="65.88571428571429" height="65.88571428571429" fill="#ffffff"/><rect x="527.09" y="329.43" width="32.94" height="32.94" fill="#000064"/><circle cx="543.5600000000001" cy="345.9" r="16.47" fill="#00FFFF"/><rect x="560.03" y="329.43" width="32.94" height="32.94" fill="#FFFFFF"/><polygon points="560.03,329.43 592.97,362.37 560.03,362.37" fill="#00FFFF"/><rect x="527.09" y="362.37" width="32.94" height="32.94" fill="#FFFFFF"/><g transform="translate(527.09,362.37) scale(1.6469999999999998) rotate(0)"><path d="M10 0H20L0 20V10L10 0Z" fill="#00FFFF"/><path d="M20 10V20H10L20 10Z" fill="#00FFFF"/></g><rect x="560.03" y="362.37" width="32.94" height="32.94" fill="#000064"/><g transform="translate(560.03,362.37) scale(1.6469999999999998) rotate(0)"><path d="M19.9981 0.00193429L3.72652 -7.68637e-07L8.4784 4.75382L0 13.2345L6.76585 20L15.2462 11.5208L20 16.2746L19.9981 0.00193429Z" fill="#000064"/></g><rect x="592.97" y="329.43" width="65.89" height="65.89" fill="#000064"/><path d="M 592.97 395.32 A 65.89 65.89 0 0 1  658.86 329.43 L 658.86 395.32" fill="#000064"/><rect x="658.86" y="329.43" width="65.89" height="65.89" fill="#00FFFF"/><g transform="translate(658.86,329.43) scale(3.2945) rotate(0)"><rect width="20" height="2" fill="#00FFFF"/><rect y="4" width="20" height="2" fill="#00FFFF"/><rect y="8" width="20" height="2" fill="#00FFFF"/><rect y="12" width="20" height="2" fill="#00FFFF"/><rect y="16" width="20" height="2" fill="#00FFFF"/></g><rect x="724.7428571428571" y="329.42857142857144" width="65.88571428571429" height="65.88571428571429" fill="#ffffff"/><rect x="724.74" y="329.43" width="32.94" height="32.94" fill="#00FFFF"/><g transform="translate(724.74,329.43) scale(1.6469999999999998) rotate(0)"><path d="M13 0H20V7L7 20H0V13L13 0Z" fill="#00FFFF"/></g><rect x="757.69" y="329.43" width="32.94" height="32.94" fill="#FFFFFF"/><g transform="translate(757.69,329.43) scale(1.6469999999999998) rotate(0)"><path d="M5 0H10L5 5L0 10V5L5 0Z" fill="#000064"/><path d="M20 15V20H15L20 15Z" fill="#000064"/><path d="M20 5V10L15 15L10 20H5L20 5Z" fill="#000064"/><path d="M15 0H20L5 15.0002L0 20.0002V15.0002L15 0Z" fill="#000064"/></g><rect x="724.74" y="362.37" width="32.94" height="32.94" fill="#00FFFF"/><g transform="translate(724.74,362.37) scale(1.6469999999999998) rotate(0)"><path d="M10 0H20V10L10 20H0V10L10 0Z" fill="#00FFFF"/></g><rect x="757.69" y="362.37" width="32.94" height="32.94" fill="#000064"/><g transform="translate(757.69,362.37) scale(1.6469999999999998) rotate(0)"><path fill-rule="evenodd" clip-rule="evenodd" d="M10 20C15.5228 20 20 15.5228 20 10C20 4.47715 15.5228 0 10 0C4.47715 0 0 4.47715 0 10C0 15.5228 4.47715 20 10 20ZM10 17C13.866 17 17 13.866 17 10C17 6.13401 13.866 3 10 3C6.13401 3 3 6.13401 3 10C3 13.866 6.13401 17 10 17Z" fill="#FFFFFF"/></g><rect x="790.63" y="329.43" width="65.89" height="65.89" fill="#000064"/><g transform="translate(790.63,329.43) scale(3.2945) rotate(0)"><rect width="20" height="2" fill="#00FFFF"/><rect y="4" width="20" height="2" fill="#00FFFF"/><rect y="8" width="20" height="2" fill="#00FFFF"/><rect y="12" width="20" height="2" fill="#00FFFF"/><rect y="16" width="20" height="2" fill="#00FFFF"/></g><rect x="856.5142857142857" y="329.42857142857144" width="65.88571428571429" height="65.88571428571429" fill="#ffffff"/><rect x="856.51" y="329.43" width="32.94" height="32.94" fill="#FFFFFF"/><g transform="translate(856.51,329.43) scale(1.6469999999999998) rotate(0)"><path d="M19.9981 0.00193429L3.72652 -7.68637e-07L8.4784 4.75382L0 13.2345L6.76585 20L15.2462 11.5208L20 16.2746L19.9981 0.00193429Z" fill="#000064"/></g><rect x="889.46" y="329.43" width="32.94" height="32.94" fill="#FFFFFF"/><g transform="translate(889.46,329.43) scale(1.6469999999999998) rotate(0)"><rect width="20" height="2" fill="#000064"/><rect y="4" width="20" height="2" fill="#000064"/><rect y="8" width="20" height="2" fill="#000064"/><rect y="12" width="20" height="2" fill="#000064"/><rect y="16" width="20" height="2" fill="#000064"/></g><rect x="856.51" y="362.37" width="32.94" height="32.94" fill="#FFFFFF"/><polygon points="856.51,362.37 889.45,362.37 856.51,395.31" fill="#FFFFFF"/><rect x="889.46" y="362.37" width="32.94" height="32.94" fill="#00FFFF"/><g transform="translate(889.46,362.37) scale(1.6469999999999998) rotate(0)"><path d="M10 0H20L0 20V10L10 0Z" fill="#00FFFF"/><path d="M20 10V20H10L20 10Z" fill="#00FFFF"/></g><rect x="922.4" y="329.42857142857144" width="65.88571428571429" height="65.88571428571429" fill="#ffffff"/><rect x="922.4" y="329.43" width="32.94" height="32.94" fill="#000064"/><g transform="translate(922.4,329.43) scale(1.6469999999999998) rotate(0)"><path d="M13 0H20V7L7 20H0V13L13 0Z" fill="#00FFFF"/></g><rect x="955.34" y="329.43" width="32.94" height="32.94" fill="#FFFFFF"/><circle cx="971.8100000000001" cy="345.9" r="16.47" fill="#FFFFFF"/><rect x="922.4" y="362.37" width="32.94" height="32.94" fill="#00FFFF"/><g transform="translate(922.4,362.37) scale(1.6469999999999998) rotate(0)"><rect width="2" height="20" fill="#000064"/><rect x="4" width="2" height="20" fill="#000064"/><rect x="8" width="2" height="20" fill="#000064"/><rect x="12" width="2" height="20" fill="#000064"/><rect x="16" width="2" height="20" fill="#000064"/></g><rect x="955.34" y="362.37" width="32.94" height="32.94" fill="#FFFFFF"/><g transform="translate(955.34,362.37) scale(1.6469999999999998) rotate(0)"><rect width="20" height="2" fill="#000064"/><rect y="4" width="20" height="2" fill="#000064"/><rect y="8" width="20" height="2" fill="#000064"/><rect y="12" width="20" height="2" fill="#000064"/><rect y="16" width="20" height="2" fill="#000064"/></g><rect x="988.2857142857143" y="329.42857142857144" width="65.88571428571429" height="65.88571428571429" fill="#ffffff"/><rect x="988.29" y="329.43" width="32.94" height="32.94" fill="#FFFFFF"/><g transform="translate(988.29,329.43) scale(1.6469999999999998) rotate(0)"><path d="M10 0H20L0 20V10L10 0Z" fill="#000064"/><path d="M20 10V20H10L20 10Z" fill="#000064"/></g><rect x="1021.23" y="329.43" width="32.94" height="32.94" fill="#FFFFFF"/><g transform="translate(1021.23,329.43) scale(1.6469999999999998) rotate(0)"><path d="M5 0H10L5 5L0 10V5L5 0Z" fill="#FFFFFF"/><path d="M20 15V20H15L20 15Z" fill="#FFFFFF"/><path d="M20 5V10L15 15L10 20H5L20 5Z" fill="#FFFFFF"/><path d="M15 0H20L5 15.0002L0 20.0002V15.0002L15 0Z" fill="#FFFFFF"/></g><rect x="988.29" y="362.37" width="32.94" height="32.94" fill="#000064"/><polygon points="988.29,362.37 1021.23,362.37 988.29,395.31" fill="#00FFFF"/><rect x="1021.23" y="362.37" width="32.94" height="32.94" fill="#00FFFF"/><g transform="translate(1021.23,362.37) scale(1.6469999999999998) rotate(0)"><path d="M19.9981 0.00193429L3.72652 -7.68637e-07L8.4784 4.75382L0 13.2345L6.76585 20L15.2462 11.5208L20 16.2746L19.9981 0.00193429Z" fill="#FFFFFF"/></g><rect x="1054.1714285714286" y="329.42857142857144" width="65.88571428571429" height="65.88571428571429" fill="#ffffff"/><rect x="1054.17" y="329.43" width="32.94" height="32.94" fill="#000064"/><g transform="translate(1054.17,329.43) scale(1.6469999999999998) rotate(0)"><path d="M13 0H20V7L7 20H0V13L13 0Z" fill="#FFFFFF"/></g><rect x="1087.11" y="329.43" width="32.94" height="32.94" fill="#FFFFFF"/><g transform="translate(1087.11,329.43) scale(1.6469999999999998) rotate(0)"><rect width="20" height="2" fill="#000064"/><rect y="4" width="20" height="2" fill="#000064"/><rect y="8" width="20" height="2" fill="#000064"/><rect y="12" width="20" height="2" fill="#000064"/><rect y="16" width="20" height="2" fill="#000064"/></g><rect x="1054.17" y="362.37" width="32.94" height="32.94" fill="#000064"/><g transform="translate(1054.17,362.37) scale(1.6469999999999998) rotate(0)"><path fill-rule="evenodd" clip-rule="evenodd" d="M10 20C15.5228 20 20 15.5228 20 10C20 4.47715 15.5228 0 10 0C4.47715 0 0 4.47715 0 10C0 15.5228 4.47715 20 10 20ZM10 17C13.866 17 17 13.866 17 10C17 6.13401 13.866 3 10 3C6.13401 3 3 6.13401 3 10C3 13.866 6.13401 17 10 17Z" fill="#00FFFF"/></g><rect x="1087.11" y="362.37" width="32.94" height="32.94" fill="#00FFFF"/><g transform="translate(1087.11,362.37) scale(1.6469999999999998) rotate(0)"><path d="M10 0H20V10L10 20H0V10L10 0Z" fill="#00FFFF"/></g><rect x="0" y="395.31" width="65.89" height="65.89" fill="#00FFFF"/><g transform="translate(0,395.31) scale(3.2945) rotate(0)"><path d="M19.9981 0.00193429L3.72652 -7.68637e-07L8.4784 4.75382L0 13.2345L6.76585 20L15.2462 11.5208L20 16.2746L19.9981 0.00193429Z" fill="#FFFFFF"/></g><rect x="65.89" y="395.31" width="65.89" height="65.89" fill="#000064"/><circle cx="98.83500000000001" cy="428.255" r="32.945" fill="#FFFFFF"/><rect x="131.77142857142857" y="395.3142857142857" width="65.88571428571429" height="65.88571428571429" fill="#ffffff"/><rect x="131.77" y="395.31" width="32.94" height="32.94" fill="#FFFFFF"/><g transform="translate(131.77,395.31) scale(1.6469999999999998) rotate(0)"><path d="M5 0H10L5 5L0 10V5L5 0Z" fill="#000064"/><path d="M20 15V20H15L20 15Z" fill="#000064"/><path d="M20 5V10L15 15L10 20H5L20 5Z" fill="#000064"/><path d="M15 0H20L5 15.0002L0 20.0002V15.0002L15 0Z" fill="#000064"/></g><rect x="164.71" y="395.31" width="32.94" height="32.94" fill="#FFFFFF"/><g transform="translate(164.71,395.31) scale(1.6469999999999998) rotate(0)"><rect width="20" height="10" fill="#FFFFFF"/></g><rect x="131.77" y="428.26" width="32.94" height="32.94" fill="#FFFFFF"/><path d="M 131.77 461.2 A 32.94 32.94 0 0 1  164.71 428.26 L 164.71 461.2" fill="#FFFFFF"/><rect x="164.71" y="428.26" width="32.94" height="32.94" fill="#FFFFFF"/><path d="M 164.71 461.2 A 32.94 32.94 0 0 1  197.65 428.26 L 197.65 461.2" fill="#FFFFFF"/><rect x="197.65714285714284" y="395.3142857142857" width="65.88571428571429" height="65.88571428571429" fill="#ffffff"/><rect x="197.66" y="395.31" width="32.94" height="32.94" fill="#000064"/><g transform="translate(197.66,395.31) scale(1.6469999999999998) rotate(0)"><path d="M10 0H20L0 20V10L10 0Z" fill="#000064"/><path d="M20 10V20H10L20 10Z" fill="#000064"/></g><rect x="230.6" y="395.31" width="32.94" height="32.94" fill="#00FFFF"/><g transform="translate(230.6,395.31) scale(1.6469999999999998) rotate(0)"><path d="M13 0H20V7L7 20H0V13L13 0Z" fill="#000064"/></g><rect x="197.66" y="428.26" width="32.94" height="32.94" fill="#000064"/><g transform="translate(197.66,428.26) scale(1.6469999999999998) rotate(0)"><path fill-rule="evenodd" clip-rule="evenodd" d="M10 20C15.5228 20 20 15.5228 20 10C20 4.47715 15.5228 0 10 0C4.47715 0 0 4.47715 0 10C0 15.5228 4.47715 20 10 20ZM10 17C13.866 17 17 13.866 17 10C17 6.13401 13.866 3 10 3C6.13401 3 3 6.13401 3 10C3 13.866 6.13401 17 10 17Z" fill="#FFFFFF"/></g><rect x="230.6" y="428.26" width="32.94" height="32.94" fill="#000064"/><g transform="translate(230.6,428.26) scale(1.6469999999999998) rotate(0)"><rect width="20" height="10" fill="#00FFFF"/></g><rect x="263.54" y="395.31" width="65.89" height="65.89" fill="#000064"/><path d="M 263.54 461.2 A 65.89 65.89 0 0 1  329.43 395.31 L 263.54 461.2 A 65.89 65.89 0 0 0 329.43 395.31" fill="#000064"/><rect x="329.42857142857144" y="395.3142857142857" width="65.88571428571429" height="65.88571428571429" fill="#ffffff"/><rect x="329.43" y="395.31" width="32.94" height="32.94" fill="#FFFFFF"/><g transform="translate(329.43,395.31) scale(1.6469999999999998) rotate(0)"><path d="M10 0H20V10L10 20H0V10L10 0Z" fill="#00FFFF"/></g><rect x="362.37" y="395.31" width="32.94" height="32.94" fill="#00FFFF"/><g transform="translate(362.37,395.31) scale(1.6469999999999998) rotate(0)"><rect width="2" height="20" fill="#000064"/><rect x="4" width="2" height="20" fill="#000064"/><rect x="8" width="2" height="20" fill="#000064"/><rect x="12" width="2" height="20" fill="#000064"/><rect x="16" width="2" height="20" fill="#000064"/></g><rect x="329.43" y="428.26" width="32.94" height="32.94" fill="#FFFFFF"/><g transform="translate(329.43,428.26) scale(1.6469999999999998) rotate(0)"><path fill-rule="evenodd" clip-rule="evenodd" d="M10 20C15.5228 20 20 15.5228 20 10C20 4.47715 15.5228 0 10 0C4.47715 0 0 4.47715 0 10C0 15.5228 4.47715 20 10 20ZM10 17C13.866 17 17 13.866 17 10C17 6.13401 13.866 3 10 3C6.13401 3 3 6.13401 3 10C3 13.866 6.13401 17 10 17Z" fill="#FFFFFF"/></g><rect x="362.37" y="428.26" width="32.94" height="32.94" fill="#FFFFFF"/><g transform="translate(362.37,428.26) scale(1.6469999999999998) rotate(0)"><path d="M10 0H20L0 20V10L10 0Z" fill="#00FFFF"/><path d="M20 10V20H10L20 10Z" fill="#00FFFF"/></g><rect x="395.31" y="395.31" width="65.89" height="65.89" fill="#000064"/><g transform="translate(395.31,395.31) scale(3.2945) rotate(0)"><rect width="20" height="10" fill="#00FFFF"/></g><rect x="461.2" y="395.31" width="65.89" height="65.89" fill="#000064"/><g transform="translate(461.2,395.31) scale(3.2945) rotate(0)"><rect width="20" height="2" fill="#00FFFF"/><rect y="4" width="20" height="2" fill="#00FFFF"/><rect y="8" width="20" height="2" fill="#00FFFF"/><rect y="12" width="20" height="2" fill="#00FFFF"/><rect y="16" width="20" height="2" fill="#00FFFF"/></g><rect x="527.0857142857143" y="395.3142857142857" width="65.88571428571429" height="65.88571428571429" fill="#ffffff"/><rect x="527.09" y="395.31" width="32.94" height="32.94" fill="#FFFFFF"/><rect x="527.09" y="395.31" width="32.94" height="32.94" fill="#00FFFF"/><rect x="560.03" y="395.31" width="32.94" height="32.94" fill="#FFFFFF"/><g transform="translate(560.03,395.31) scale(1.6469999999999998) rotate(0)"><path fill-rule="evenodd" clip-rule="evenodd" d="M10 20C15.5228 20 20 15.5228 20 10C20 4.47715 15.5228 0 10 0C4.47715 0 0 4.47715 0 10C0 15.5228 4.47715 20 10 20ZM10 17C13.866 17 17 13.866 17 10C17 6.13401 13.866 3 10 3C6.13401 3 3 6.13401 3 10C3 13.866 6.13401 17 10 17Z" fill="#00FFFF"/></g><rect x="527.09" y="428.26" width="32.94" height="32.94" fill="#000064"/><g transform="translate(527.09,428.26) scale(1.6469999999999998) rotate(0)"><path d="M19.9981 0.00193429L3.72652 -7.68637e-07L8.4784 4.75382L0 13.2345L6.76585 20L15.2462 11.5208L20 16.2746L19.9981 0.00193429Z" fill="#00FFFF"/></g><rect x="560.03" y="428.26" width="32.94" height="32.94" fill="#00FFFF"/><g transform="translate(560.03,428.26) scale(1.6469999999999998) rotate(0)"><rect width="20" height="10" fill="#FFFFFF"/></g><rect x="592.97" y="395.31" width="65.89" height="65.89" fill="#FFFFFF"/><g transform="translate(592.97,395.31) scale(3.2945) rotate(0)"><path d="M19.9981 0.00193429L3.72652 -7.68637e-07L8.4784 4.75382L0 13.2345L6.76585 20L15.2462 11.5208L20 16.2746L19.9981 0.00193429Z" fill="#00FFFF"/></g><rect x="658.86" y="395.31" width="65.89" height="65.89" fill="#000064"/><g transform="translate(658.86,395.31) scale(3.2945) rotate(0)"><path d="M5 0H10L5 5L0 10V5L5 0Z" fill="#000064"/><path d="M20 15V20H15L20 15Z" fill="#000064"/><path d="M20 5V10L15 15L10 20H5L20 5Z" fill="#000064"/><path d="M15 0H20L5 15.0002L0 20.0002V15.0002L15 0Z" fill="#000064"/></g><rect x="724.74" y="395.31" width="65.89" height="65.89" fill="#FFFFFF"/><g transform="translate(724.74,395.31) scale(3.2945) rotate(0)"><path d="M13 0H20V7L7 20H0V13L13 0Z" fill="#000064"/></g><rect x="790.63" y="395.31" width="65.89" height="65.89" fill="#000064"/><g transform="translate(790.63,395.31) scale(3.2945) rotate(0)"><path d="M10 0H20V10L10 20H0V10L10 0Z" fill="#FFFFFF"/></g><rect x="856.51" y="395.31" width="65.89" height="65.89" fill="#000064"/><path d="M 856.51 395.31 A 65.89 65.89 0 0 1  922.4 461.2 L 856.51 395.31 A 65.89 65.89 0 0 0 922.4 461.2" fill="#000064"/><rect x="922.4" y="395.3142857142857" width="65.88571428571429" height="65.88571428571429" fill="#ffffff"/><rect x="922.4" y="395.31" width="32.94" height="32.94" fill="#FFFFFF"/><rect x="922.4" y="395.31" width="32.94" height="32.94" fill="#00FFFF"/><rect x="955.34" y="395.31" width="32.94" height="32.94" fill="#FFFFFF"/><g transform="translate(955.34,395.31) scale(1.6469999999999998) rotate(0)"><rect width="20" height="2" fill="#000064"/><rect y="4" width="20" height="2" fill="#000064"/><rect y="8" width="20" height="2" fill="#000064"/><rect y="12" width="20" height="2" fill="#000064"/><rect y="16" width="20" height="2" fill="#000064"/></g><rect x="922.4" y="428.26" width="32.94" height="32.94" fill="#FFFFFF"/><g transform="translate(922.4,428.26) scale(1.6469999999999998) rotate(0)"><rect width="20" height="2" fill="#FFFFFF"/><rect y="4" width="20" height="2" fill="#FFFFFF"/><rect y="8" width="20" height="2" fill="#FFFFFF"/><rect y="12" width="20" height="2" fill="#FFFFFF"/><rect y="16" width="20" height="2" fill="#FFFFFF"/></g><rect x="955.34" y="428.26" width="32.94" height="32.94" fill="#FFFFFF"/><g transform="translate(955.34,428.26) scale(1.6469999999999998) rotate(0)"><path fill-rule="evenodd" clip-rule="evenodd" d="M10 20C15.5228 20 20 15.5228 20 10C20 4.47715 15.5228 0 10 0C4.47715 0 0 4.47715 0 10C0 15.5228 4.47715 20 10 20ZM10 17C13.866 17 17 13.866 17 10C17 6.13401 13.866 3 10 3C6.13401 3 3 6.13401 3 10C3 13.866 6.13401 17 10 17Z" fill="#00FFFF"/></g><rect x="988.2857142857143" y="395.3142857142857" width="65.88571428571429" height="65.88571428571429" fill="#ffffff"/><rect x="988.29" y="395.31" width="32.94" height="32.94" fill="#FFFFFF"/><g transform="translate(988.29,395.31) scale(1.6469999999999998) rotate(0)"><rect width="20" height="10" fill="#FFFFFF"/></g><rect x="1021.23" y="395.31" width="32.94" height="32.94" fill="#000064"/><rect x="1021.23" y="395.31" width="32.94" height="32.94" fill="#FFFFFF"/><rect x="988.29" y="428.26" width="32.94" height="32.94" fill="#FFFFFF"/><g transform="translate(988.29,428.26) scale(1.6469999999999998) rotate(0)"><rect width="20" height="10" fill="#00FFFF"/></g><rect x="1021.23" y="428.26" width="32.94" height="32.94" fill="#FFFFFF"/><path d="M 1021.23 428.26 A 32.94 32.94 0 0 0 1054.17 461.2 L 1054.17 428.26" fill="#FFFFFF"/><rect x="1054.1714285714286" y="395.3142857142857" width="65.88571428571429" height="65.88571428571429" fill="#ffffff"/><rect x="1054.17" y="395.31" width="32.94" height="32.94" fill="#00FFFF"/><g transform="translate(1054.17,395.31) scale(1.6469999999999998) rotate(0)"><path d="M10 0H20L0 20V10L10 0Z" fill="#00FFFF"/><path d="M20 10V20H10L20 10Z" fill="#00FFFF"/></g><rect x="1087.11" y="395.31" width="32.94" height="32.94" fill="#FFFFFF"/><rect x="1087.11" y="395.31" width="32.94" height="32.94" fill="#00FFFF"/><rect x="1054.17" y="428.26" width="32.94" height="32.94" fill="#000064"/><g transform="translate(1054.17,428.26) scale(1.6469999999999998) rotate(0)"><rect width="2" height="20" fill="#000064"/><rect x="4" width="2" height="20" fill="#000064"/><rect x="8" width="2" height="20" fill="#000064"/><rect x="12" width="2" height="20" fill="#000064"/><rect x="16" width="2" height="20" fill="#000064"/></g><rect x="1087.11" y="428.26" width="32.94" height="32.94" fill="#000064"/><rect x="1087.11" y="428.26" width="32.94" height="32.94" fill="#FFFFFF"/></g></svg>