<?xml version="1.0" standalone="no"?><svg xmlns:xlink="http://www.w3.org/1999/xlink" xmlns="http://www.w3.org/2000/svg" viewBox="0 0 1000 583.3300659092145" preserveAspectRatio="xMaxYMax slice"><g transform="scale(1.2648093363165969)"><rect x="0" y="0" width="856.5142857142857" height="461.2" fill="#ffffff"/><rect x="0" y="0" width="65.89" height="65.89" fill="#000064"/><g transform="translate(0,0) scale(3.2945) rotate(0)"><rect width="20" height="2" fill="#00FFFF"/><rect y="4" width="20" height="2" fill="#00FFFF"/><rect y="8" width="20" height="2" fill="#00FFFF"/><rect y="12" width="20" height="2" fill="#00FFFF"/><rect y="16" width="20" height="2" fill="#00FFFF"/></g><rect x="65.89" y="0" width="65.89" height="65.89" fill="#000064"/><g transform="translate(65.89,0) scale(3.2945) rotate(0)"><rect width="20" height="2" fill="#000064"/><rect y="4" width="20" height="2" fill="#000064"/><rect y="8" width="20" height="2" fill="#000064"/><rect y="12" width="20" height="2" fill="#000064"/><rect y="16" width="20" height="2" fill="#000064"/></g><rect x="131.77" y="0" width="65.89" height="65.89" fill="#000064"/><rect x="131.77" y="0" width="65.89" height="65.89" fill="#00FFFF"/><rect x="197.66" y="0" width="65.89" height="65.89" fill="#000064"/><g transform="translate(197.66,0) scale(3.2945) rotate(0)"><rect width="20" height="10" fill="#00FFFF"/></g><rect x="263.54" y="0" width="65.89" height="65.89" fill="#000064"/><g transform="translate(263.54,0) scale(3.2945) rotate(0)"><path d="M10 0L20 10L10 20L0 10L10 0Z" fill="#000064"/></g><rect x="329.43" y="0" width="65.89" height="65.89" fill="#000064"/><rect x="329.43" y="0" width="65.89" height="65.89" fill="#000064"/><rect x="395.31" y="0" width="65.89" height="65.89" fill="#00FFFF"/><g transform="translate(395.31,0) scale(3.2945) rotate(0)"><path d="M10 0L20 10L10 20L0 10L10 0Z" fill="#00FFFF"/></g><rect x="461.2" y="0" width="65.89" height="65.89" fill="#000064"/><g transform="translate(461.2,0) scale(3.2945) rotate(0)"><path d="M5 0H10L5 5L0 10V5L5 0Z" fill="#000064"/><path d="M20 15V20H15L20 15Z" fill="#000064"/><path d="M20 5V10L15 15L10 20H5L20 5Z" fill="#000064"/><path d="M15 0H20L5 15.0002L0 20.0002V15.0002L15 0Z" fill="#000064"/></g><rect x="527.09" y="0" width="65.89" height="65.89" fill="#000064"/><rect x="527.09" y="0" width="65.89" height="65.89" fill="#000064"/><rect x="592.97" y="0" width="65.89" height="65.89" fill="#000064"/><path d="M 592.97 65.89 A 65.89 65.89 0 0 0 658.86 0 L 592.97 0" fill="#00FFFF"/><rect x="658.86" y="0" width="65.89" height="65.89" fill="#000064"/><rect x="658.86" y="0" width="65.89" height="65.89" fill="#00FFFF"/><rect x="724.74" y="0" width="65.89" height="65.89" fill="#00FFFF"/><g transform="translate(724.74,0) scale(3.2945) rotate(0)"><path d="M10 0H20L0 20V10L10 0Z" fill="#00FFFF"/><path d="M20 10V20H10L20 10Z" fill="#00FFFF"/></g><rect x="790.63" y="0" width="65.89" height="65.89" fill="#00FFFF"/><g transform="translate(790.63,0) scale(3.2945) rotate(0)"><rect width="20" height="10" fill="#000064"/></g><rect x="0" y="65.89" width="65.89" height="65.89" fill="#00FFFF"/><g transform="translate(0,65.89) scale(3.2945) rotate(0)"><rect width="20" height="2" fill="#000064"/><rect y="4" width="20" height="2" fill="#000064"/><rect y="8" width="20" height="2" fill="#000064"/><rect y="12" width="20" height="2" fill="#000064"/><rect y="16" width="20" height="2" fill="#000064"/></g><rect x="65.89" y="65.89" width="65.89" height="65.89" fill="#000064"/><path d="M 65.89 131.78 A 65.89 65.89 0 0 0 131.78 65.89 L 65.89 65.89" fill="#00FFFF"/><rect x="131.77" y="65.89" width="65.89" height="65.89" fill="#00FFFF"/><g transform="translate(131.77,65.89) scale(3.2945) rotate(0)"><rect width="2" height="20" fill="#000064"/><rect x="4" width="2" height="20" fill="#000064"/><rect x="8" width="2" height="20" fill="#000064"/><rect x="12" width="2" height="20" fill="#000064"/><rect x="16" width="2" height="20" fill="#000064"/></g><rect x="197.66" y="65.89" width="65.89" height="65.89" fill="#00FFFF"/><path d="M 197.66 65.89 A 65.89 65.89 0 0 1 263.55 131.78 L 197.66 131.78" fill="#00FFFF"/><rect x="263.54" y="65.89" width="65.89" height="65.89" fill="#000064"/><g transform="translate(263.54,65.89) scale(3.2945) rotate(0)"><path d="M10 0L20 10L10 20L0 10L10 0Z" fill="#00FFFF"/></g><rect x="329.43" y="65.89" width="65.89" height="65.89" fill="#00FFFF"/><g transform="translate(329.43,65.89) scale(3.2945) rotate(0)"><path d="M19.9981 0.00193429L3.72652 -7.68637e-07L8.4784 4.75382L0 13.2345L6.76585 20L15.2462 11.5208L20 16.2746L19.9981 0.00193429Z" fill="#00FFFF"/></g><rect x="395.31" y="65.89" width="65.89" height="65.89" fill="#00FFFF"/><g transform="translate(395.31,65.89) scale(3.2945) rotate(0)"><path d="M10 0L20 10L10 20L0 10L10 0Z" fill="#00FFFF"/></g><rect x="461.2" y="65.89" width="65.89" height="65.89" fill="#000064"/><g transform="translate(461.2,65.89) scale(3.2945) rotate(0)"><path d="M19.9981 0.00193429L3.72652 -7.68637e-07L8.4784 4.75382L0 13.2345L6.76585 20L15.2462 11.5208L20 16.2746L19.9981 0.00193429Z" fill="#00FFFF"/></g><rect x="527.09" y="65.89" width="65.89" height="65.89" fill="#00FFFF"/><g transform="translate(527.09,65.89) scale(3.2945) rotate(0)"><rect width="2" height="20" fill="#00FFFF"/><rect x="4" width="2" height="20" fill="#00FFFF"/><rect x="8" width="2" height="20" fill="#00FFFF"/><rect x="12" width="2" height="20" fill="#00FFFF"/><rect x="16" width="2" height="20" fill="#00FFFF"/></g><rect x="592.97" y="65.89" width="65.89" height="65.89" fill="#000064"/><path d="M 592.97 65.89 A 65.89 65.89 0 0 0 658.86 131.78 L 658.86 65.89" fill="#000064"/><rect x="658.86" y="65.89" width="65.89" height="65.89" fill="#000064"/><rect x="658.86" y="65.89" width="65.89" height="65.89" fill="#00FFFF"/><rect x="724.74" y="65.89" width="65.89" height="65.89" fill="#000064"/><g transform="translate(724.74,65.89) scale(3.2945) rotate(0)"><path d="M10 0L20 10L10 20L0 10L10 0Z" fill="#000064"/></g><rect x="790.63" y="65.89" width="65.89" height="65.89" fill="#00FFFF"/><path d="M 790.63 131.78 A 65.89 65.89 0 0 0 856.52 65.89 L 790.63 65.89" fill="#00FFFF"/><rect x="0" y="131.77" width="65.89" height="65.89" fill="#000064"/><rect x="0" y="131.77" width="65.89" height="65.89" fill="#000064"/><rect x="65.89" y="131.77" width="65.89" height="65.89" fill="#00FFFF"/><rect x="65.89" y="131.77" width="65.89" height="65.89" fill="#00FFFF"/><rect x="131.77" y="131.77" width="65.89" height="65.89" fill="#000064"/><g transform="translate(131.77,131.77) scale(3.2945) rotate(0)"><path d="M19.9981 0.00193429L3.72652 -7.68637e-07L8.4784 4.75382L0 13.2345L6.76585 20L15.2462 11.5208L20 16.2746L19.9981 0.00193429Z" fill="#000064"/></g><rect x="197.66" y="131.77" width="65.89" height="65.89" fill="#00FFFF"/><g transform="translate(197.66,131.77) scale(3.2945) rotate(0)"><rect width="20" height="2" fill="#000064"/><rect y="4" width="20" height="2" fill="#000064"/><rect y="8" width="20" height="2" fill="#000064"/><rect y="12" width="20" height="2" fill="#000064"/><rect y="16" width="20" height="2" fill="#000064"/></g><rect x="263.54" y="131.77" width="65.89" height="65.89" fill="#000064"/><polygon points="263.54,131.77 329.43,131.77 263.54,197.66000000000003" fill="#00FFFF"/><rect x="329.43" y="131.77" width="65.89" height="65.89" fill="#00FFFF"/><g transform="translate(329.43,131.77) scale(3.2945) rotate(0)"><rect width="2" height="20" fill="#00FFFF"/><rect x="4" width="2" height="20" fill="#00FFFF"/><rect x="8" width="2" height="20" fill="#00FFFF"/><rect x="12" width="2" height="20" fill="#00FFFF"/><rect x="16" width="2" height="20" fill="#00FFFF"/></g><rect x="395.31" y="131.77" width="65.89" height="65.89" fill="#000064"/><g transform="translate(395.31,131.77) scale(3.2945) rotate(0)"><rect width="2" height="20" fill="#00FFFF"/><rect x="4" width="2" height="20" fill="#00FFFF"/><rect x="8" width="2" height="20" fill="#00FFFF"/><rect x="12" width="2" height="20" fill="#00FFFF"/><rect x="16" width="2" height="20" fill="#00FFFF"/></g><rect x="461.2" y="131.77" width="65.89" height="65.89" fill="#00FFFF"/><g transform="translate(461.2,131.77) scale(3.2945) rotate(0)"><path d="M19.9981 0.00193429L3.72652 -7.68637e-07L8.4784 4.75382L0 13.2345L6.76585 20L15.2462 11.5208L20 16.2746L19.9981 0.00193429Z" fill="#00FFFF"/></g><rect x="527.09" y="131.77" width="65.89" height="65.89" fill="#00FFFF"/><g transform="translate(527.09,131.77) scale(3.2945) rotate(0)"><path d="M10 0L20 10L10 20L0 10L10 0Z" fill="#000064"/></g><rect x="592.97" y="131.77" width="65.89" height="65.89" fill="#00FFFF"/><polygon points="592.97,131.77 658.86,131.77 592.97,197.66000000000003" fill="#00FFFF"/><rect x="658.86" y="131.77" width="65.89" height="65.89" fill="#000064"/><g transform="translate(658.86,131.77) scale(3.2945) rotate(0)"><rect width="20" height="10" fill="#000064"/></g><rect x="724.74" y="131.77" width="65.89" height="65.89" fill="#000064"/><g transform="translate(724.74,131.77) scale(3.2945) rotate(0)"><path d="M10 0H20L0 20V10L10 0Z" fill="#000064"/><path d="M20 10V20H10L20 10Z" fill="#000064"/></g><rect x="790.63" y="131.77" width="65.89" height="65.89" fill="#00FFFF"/><g transform="translate(790.63,131.77) scale(3.2945) rotate(0)"><path d="M5 0H10L5 5L0 10V5L5 0Z" fill="#000064"/><path d="M20 15V20H15L20 15Z" fill="#000064"/><path d="M20 5V10L15 15L10 20H5L20 5Z" fill="#000064"/><path d="M15 0H20L5 15.0002L0 20.0002V15.0002L15 0Z" fill="#000064"/></g><rect x="0" y="197.66" width="65.89" height="65.89" fill="#00FFFF"/><g transform="translate(0,197.66) scale(3.2945) rotate(0)"><rect width="20" height="2" fill="#000064"/><rect y="4" width="20" height="2" fill="#000064"/><rect y="8" width="20" height="2" fill="#000064"/><rect y="12" width="20" height="2" fill="#000064"/><rect y="16" width="20" height="2" fill="#000064"/></g><rect x="65.89" y="197.66" width="65.89" height="65.89" fill="#000064"/><g transform="translate(65.89,197.66) scale(3.2945) rotate(0)"><path d="M10 0H20L0 20V10L10 0Z" fill="#000064"/><path d="M20 10V20H10L20 10Z" fill="#000064"/></g><rect x="131.77" y="197.66" width="65.89" height="65.89" fill="#000064"/><g transform="translate(131.77,197.66) scale(3.2945) rotate(0)"><rect width="20" height="10" fill="#000064"/></g><rect x="197.66" y="197.66" width="65.89" height="65.89" fill="#000064"/><rect x="197.66" y="197.66" width="65.89" height="65.89" fill="#00FFFF"/><rect x="263.54" y="197.66" width="65.89" height="65.89" fill="#00FFFF"/><rect x="263.54" y="197.66" width="65.89" height="65.89" fill="#00FFFF"/><rect x="329.43" y="197.66" width="65.89" height="65.89" fill="#000064"/><g transform="translate(329.43,197.66) scale(3.2945) rotate(0)"><rect width="20" height="2" fill="#000064"/><rect y="4" width="20" height="2" fill="#000064"/><rect y="8" width="20" height="2" fill="#000064"/><rect y="12" width="20" height="2" fill="#000064"/><rect y="16" width="20" height="2" fill="#000064"/></g><rect x="395.31" y="197.66" width="65.89" height="65.89" fill="#00FFFF"/><g transform="translate(395.31,197.66) scale(3.2945) rotate(0)"><rect width="20" height="10" fill="#00FFFF"/></g><rect x="461.2" y="197.66" width="65.89" height="65.89" fill="#000064"/><g transform="translate(461.2,197.66) scale(3.2945) rotate(0)"><path d="M10 0L20 10L10 20L0 10L10 0Z" fill="#00FFFF"/></g><rect x="527.09" y="197.66" width="65.89" height="65.89" fill="#000064"/><g transform="translate(527.09,197.66) scale(3.2945) rotate(0)"><path d="M19.9981 0.00193429L3.72652 -7.68637e-07L8.4784 4.75382L0 13.2345L6.76585 20L15.2462 11.5208L20 16.2746L19.9981 0.00193429Z" fill="#000064"/></g><rect x="592.97" y="197.66" width="65.89" height="65.89" fill="#000064"/><rect x="592.97" y="197.66" width="65.89" height="65.89" fill="#00FFFF"/><rect x="658.86" y="197.66" width="65.89" height="65.89" fill="#00FFFF"/><g transform="translate(658.86,197.66) scale(3.2945) rotate(0)"><rect width="2" height="20" fill="#00FFFF"/><rect x="4" width="2" height="20" fill="#00FFFF"/><rect x="8" width="2" height="20" fill="#00FFFF"/><rect x="12" width="2" height="20" fill="#00FFFF"/><rect x="16" width="2" height="20" fill="#00FFFF"/></g><rect x="724.74" y="197.66" width="65.89" height="65.89" fill="#00FFFF"/><polygon points="724.74,197.66 790.63,263.55 724.74,263.55" fill="#00FFFF"/><rect x="790.63" y="197.66" width="65.89" height="65.89" fill="#000064"/><g transform="translate(790.63,197.66) scale(3.2945) rotate(0)"><rect width="20" height="10" fill="#00FFFF"/></g><rect x="0" y="263.54" width="65.89" height="65.89" fill="#00FFFF"/><g transform="translate(0,263.54) scale(3.2945) rotate(0)"><path d="M19.9981 0.00193429L3.72652 -7.68637e-07L8.4784 4.75382L0 13.2345L6.76585 20L15.2462 11.5208L20 16.2746L19.9981 0.00193429Z" fill="#00FFFF"/></g><rect x="65.89" y="263.54" width="65.89" height="65.89" fill="#000064"/><g transform="translate(65.89,263.54) scale(3.2945) rotate(0)"><rect width="2" height="20" fill="#00FFFF"/><rect x="4" width="2" height="20" fill="#00FFFF"/><rect x="8" width="2" height="20" fill="#00FFFF"/><rect x="12" width="2" height="20" fill="#00FFFF"/><rect x="16" width="2" height="20" fill="#00FFFF"/></g><rect x="131.77" y="263.54" width="65.89" height="65.89" fill="#00FFFF"/><g transform="translate(131.77,263.54) scale(3.2945) rotate(0)"><path d="M19.9981 0.00193429L3.72652 -7.68637e-07L8.4784 4.75382L0 13.2345L6.76585 20L15.2462 11.5208L20 16.2746L19.9981 0.00193429Z" fill="#000064"/></g><rect x="197.66" y="263.54" width="65.89" height="65.89" fill="#00FFFF"/><rect x="197.66" y="263.54" width="65.89" height="65.89" fill="#00FFFF"/><rect x="263.54" y="263.54" width="65.89" height="65.89" fill="#00FFFF"/><g transform="translate(263.54,263.54) scale(3.2945) rotate(0)"><path d="M5 0H10L5 5L0 10V5L5 0Z" fill="#00FFFF"/><path d="M20 15V20H15L20 15Z" fill="#00FFFF"/><path d="M20 5V10L15 15L10 20H5L20 5Z" fill="#00FFFF"/><path d="M15 0H20L5 15.0002L0 20.0002V15.0002L15 0Z" fill="#00FFFF"/></g><rect x="329.43" y="263.54" width="65.89" height="65.89" fill="#00FFFF"/><path d="M 329.43 263.54 A 65.89 65.89 0 0 0 395.32 329.43 L 395.32 263.54" fill="#000064"/><rect x="395.31" y="263.54" width="65.89" height="65.89" fill="#00FFFF"/><g transform="translate(395.31,263.54) scale(3.2945) rotate(0)"><path d="M10 0L20 10L10 20L0 10L10 0Z" fill="#00FFFF"/></g><rect x="461.2" y="263.54" width="65.89" height="65.89" fill="#000064"/><g transform="translate(461.2,263.54) scale(3.2945) rotate(0)"><path d="M19.9981 0.00193429L3.72652 -7.68637e-07L8.4784 4.75382L0 13.2345L6.76585 20L15.2462 11.5208L20 16.2746L19.9981 0.00193429Z" fill="#00FFFF"/></g><rect x="527.09" y="263.54" width="65.89" height="65.89" fill="#00FFFF"/><g transform="translate(527.09,263.54) scale(3.2945) rotate(0)"><rect width="2" height="20" fill="#00FFFF"/><rect x="4" width="2" height="20" fill="#00FFFF"/><rect x="8" width="2" height="20" fill="#00FFFF"/><rect x="12" width="2" height="20" fill="#00FFFF"/><rect x="16" width="2" height="20" fill="#00FFFF"/></g><rect x="592.97" y="263.54" width="65.89" height="65.89" fill="#000064"/><g transform="translate(592.97,263.54) scale(3.2945) rotate(0)"><path d="M5 0H10L5 5L0 10V5L5 0Z" fill="#00FFFF"/><path d="M20 15V20H15L20 15Z" fill="#00FFFF"/><path d="M20 5V10L15 15L10 20H5L20 5Z" fill="#00FFFF"/><path d="M15 0H20L5 15.0002L0 20.0002V15.0002L15 0Z" fill="#00FFFF"/></g><rect x="658.86" y="263.54" width="65.89" height="65.89" fill="#00FFFF"/><path d="M 658.86 263.54 A 65.89 65.89 0 0 1 724.75 329.43 L 658.86 329.43" fill="#000064"/><rect x="724.74" y="263.54" width="65.89" height="65.89" fill="#000064"/><g transform="translate(724.74,263.54) scale(3.2945) rotate(0)"><rect width="2" height="20" fill="#00FFFF"/><rect x="4" width="2" height="20" fill="#00FFFF"/><rect x="8" width="2" height="20" fill="#00FFFF"/><rect x="12" width="2" height="20" fill="#00FFFF"/><rect x="16" width="2" height="20" fill="#00FFFF"/></g><rect x="790.63" y="263.54" width="65.89" height="65.89" fill="#00FFFF"/><g transform="translate(790.63,263.54) scale(3.2945) rotate(0)"><path d="M10 0H20L0 20V10L10 0Z" fill="#00FFFF"/><path d="M20 10V20H10L20 10Z" fill="#00FFFF"/></g><rect x="0" y="329.43" width="65.89" height="65.89" fill="#000064"/><g transform="translate(0,329.43) scale(3.2945) rotate(0)"><path d="M10 0H20L0 20V10L10 0Z" fill="#00FFFF"/><path d="M20 10V20H10L20 10Z" fill="#00FFFF"/></g><rect x="65.89" y="329.43" width="65.89" height="65.89" fill="#00FFFF"/><rect x="65.89" y="329.43" width="65.89" height="65.89" fill="#000064"/><rect x="131.77" y="329.43" width="65.89" height="65.89" fill="#000064"/><g transform="translate(131.77,329.43) scale(3.2945) rotate(0)"><path d="M10 0L20 10L10 20L0 10L10 0Z" fill="#00FFFF"/></g><rect x="197.66" y="329.43" width="65.89" height="65.89" fill="#000064"/><g transform="translate(197.66,329.43) scale(3.2945) rotate(0)"><path d="M10 0H20L0 20V10L10 0Z" fill="#000064"/><path d="M20 10V20H10L20 10Z" fill="#000064"/></g><rect x="263.54" y="329.43" width="65.89" height="65.89" fill="#00FFFF"/><g transform="translate(263.54,329.43) scale(3.2945) rotate(0)"><path d="M10 0H20L0 20V10L10 0Z" fill="#00FFFF"/><path d="M20 10V20H10L20 10Z" fill="#00FFFF"/></g><rect x="329.43" y="329.43" width="65.89" height="65.89" fill="#00FFFF"/><rect x="329.43" y="329.43" width="65.89" height="65.89" fill="#00FFFF"/><rect x="395.31" y="329.43" width="65.89" height="65.89" fill="#00FFFF"/><g transform="translate(395.31,329.43) scale(3.2945) rotate(0)"><path d="M19.9981 0.00193429L3.72652 -7.68637e-07L8.4784 4.75382L0 13.2345L6.76585 20L15.2462 11.5208L20 16.2746L19.9981 0.00193429Z" fill="#00FFFF"/></g><rect x="461.2" y="329.43" width="65.89" height="65.89" fill="#00FFFF"/><rect x="461.2" y="329.43" width="65.89" height="65.89" fill="#00FFFF"/><rect x="527.09" y="329.43" width="65.89" height="65.89" fill="#00FFFF"/><g transform="translate(527.09,329.43) scale(3.2945) rotate(0)"><rect width="20" height="2" fill="#000064"/><rect y="4" width="20" height="2" fill="#000064"/><rect y="8" width="20" height="2" fill="#000064"/><rect y="12" width="20" height="2" fill="#000064"/><rect y="16" width="20" height="2" fill="#000064"/></g><rect x="592.97" y="329.43" width="65.89" height="65.89" fill="#00FFFF"/><g transform="translate(592.97,329.43) scale(3.2945) rotate(0)"><rect width="20" height="2" fill="#000064"/><rect y="4" width="20" height="2" fill="#000064"/><rect y="8" width="20" height="2" fill="#000064"/><rect y="12" width="20" height="2" fill="#000064"/><rect y="16" width="20" height="2" fill="#000064"/></g><rect x="658.86" y="329.43" width="65.89" height="65.89" fill="#000064"/><g transform="translate(658.86,329.43) scale(3.2945) rotate(0)"><path d="M10 0L20 10L10 20L0 10L10 0Z" fill="#00FFFF"/></g><rect x="724.74" y="329.43" width="65.89" height="65.89" fill="#000064"/><g transform="translate(724.74,329.43) scale(3.2945) rotate(0)"><rect width="20" height="2" fill="#000064"/><rect y="4" width="20" height="2" fill="#000064"/><rect y="8" width="20" height="2" fill="#000064"/><rect y="12" width="20" height="2" fill="#000064"/><rect y="16" width="20" height="2" fill="#000064"/></g><rect x="790.63" y="329.43" width="65.89" height="65.89" fill="#000064"/><g transform="translate(790.63,329.43) scale(3.2945) rotate(0)"><path d="M5 0H10L5 5L0 10V5L5 0Z" fill="#000064"/><path d="M20 15V20H15L20 15Z" fill="#000064"/><path d="M20 5V10L15 15L10 20H5L20 5Z" fill="#000064"/><path d="M15 0H20L5 15.0002L0 20.0002V15.0002L15 0Z" fill="#000064"/></g><rect x="0" y="395.31" width="65.89" height="65.89" fill="#00FFFF"/><polygon points="0,395.31 65.89,395.31 0,461.2" fill="#00FFFF"/><rect x="65.89" y="395.31" width="65.89" height="65.89" fill="#00FFFF"/><g transform="translate(65.89,395.31) scale(3.2945) rotate(0)"><path d="M5 0H10L5 5L0 10V5L5 0Z" fill="#00FFFF"/><path d="M20 15V20H15L20 15Z" fill="#00FFFF"/><path d="M20 5V10L15 15L10 20H5L20 5Z" fill="#00FFFF"/><path d="M15 0H20L5 15.0002L0 20.0002V15.0002L15 0Z" fill="#00FFFF"/></g><rect x="131.77" y="395.31" width="65.89" height="65.89" fill="#00FFFF"/><g transform="translate(131.77,395.31) scale(3.2945) rotate(0)"><path d="M19.9981 0.00193429L3.72652 -7.68637e-07L8.4784 4.75382L0 13.2345L6.76585 20L15.2462 11.5208L20 16.2746L19.9981 0.00193429Z" fill="#000064"/></g><rect x="197.66" y="395.31" width="65.89" height="65.89" fill="#00FFFF"/><g transform="translate(197.66,395.31) scale(3.2945) rotate(0)"><path d="M5 0H10L5 5L0 10V5L5 0Z" fill="#000064"/><path d="M20 15V20H15L20 15Z" fill="#000064"/><path d="M20 5V10L15 15L10 20H5L20 5Z" fill="#000064"/><path d="M15 0H20L5 15.0002L0 20.0002V15.0002L15 0Z" fill="#000064"/></g><rect x="263.54" y="395.31" width="65.89" height="65.89" fill="#000064"/><g transform="translate(263.54,395.31) scale(3.2945) rotate(0)"><path d="M10 0L20 10L10 20L0 10L10 0Z" fill="#00FFFF"/></g><rect x="329.43" y="395.31" width="65.89" height="65.89" fill="#000064"/><polygon points="395.32,395.31 395.32,461.2 329.43,461.2" fill="#000064"/><rect x="395.31" y="395.31" width="65.89" height="65.89" fill="#00FFFF"/><path d="M 395.31 395.31 A 65.89 65.89 0 0 0 461.2 461.2 L 461.2 395.31" fill="#000064"/><rect x="461.2" y="395.31" width="65.89" height="65.89" fill="#00FFFF"/><g transform="translate(461.2,395.31) scale(3.2945) rotate(0)"><path d="M19.9981 0.00193429L3.72652 -7.68637e-07L8.4784 4.75382L0 13.2345L6.76585 20L15.2462 11.5208L20 16.2746L19.9981 0.00193429Z" fill="#00FFFF"/></g><rect x="527.09" y="395.31" width="65.89" height="65.89" fill="#00FFFF"/><g transform="translate(527.09,395.31) scale(3.2945) rotate(0)"><path d="M10 0H20L0 20V10L10 0Z" fill="#000064"/><path d="M20 10V20H10L20 10Z" fill="#000064"/></g><rect x="592.97" y="395.31" width="65.89" height="65.89" fill="#00FFFF"/><g transform="translate(592.97,395.31) scale(3.2945) rotate(0)"><rect width="20" height="2" fill="#000064"/><rect y="4" width="20" height="2" fill="#000064"/><rect y="8" width="20" height="2" fill="#000064"/><rect y="12" width="20" height="2" fill="#000064"/><rect y="16" width="20" height="2" fill="#000064"/></g><rect x="658.86" y="395.31" width="65.89" height="65.89" fill="#00FFFF"/><g transform="translate(658.86,395.31) scale(3.2945) rotate(0)"><rect width="2" height="20" fill="#000064"/><rect x="4" width="2" height="20" fill="#000064"/><rect x="8" width="2" height="20" fill="#000064"/><rect x="12" width="2" height="20" fill="#000064"/><rect x="16" width="2" height="20" fill="#000064"/></g><rect x="724.74" y="395.31" width="65.89" height="65.89" fill="#000064"/><rect x="724.74" y="395.31" width="65.89" height="65.89" fill="#00FFFF"/><rect x="790.63" y="395.31" width="65.89" height="65.89" fill="#000064"/><g transform="translate(790.63,395.31) scale(3.2945) rotate(0)"><rect width="20" height="10" fill="#00FFFF"/></g></g></svg>