<?xml version="1.0" encoding="UTF-8" standalone="no"?>
<!-- Created with Inkscape (http://www.inkscape.org/) -->

<svg
   version="1.1"
   id="svg1"
   width="309.12"
   height="259.84"
   viewBox="0 0 309.12 259.84"
   sodipodi:docname="RM-monogram-black-on-transparent.svg"
   inkscape:version="1.4 (e7c3feb1, 2024-10-09)"
   xmlns:inkscape="http://www.inkscape.org/namespaces/inkscape"
   xmlns:sodipodi="http://sodipodi.sourceforge.net/DTD/sodipodi-0.dtd"
   xmlns="http://www.w3.org/2000/svg"
   xmlns:svg="http://www.w3.org/2000/svg">
  <defs
     id="defs1">
    <inkscape:path-effect
       effect="powerstroke"
       message=""
       id="path-effect9"
       is_visible="true"
       lpeversion="1.3"
       scale_width="1"
       interpolator_type="CubicBezierJohan"
       interpolator_beta="0.2"
       start_linecap_type="zerowidth"
       end_linecap_type="zerowidth"
       offset_points="0,0.032552678"
       linejoin_type="extrp_arc"
       miter_limit="4"
       not_jump="false"
       sort_points="true" />
    <inkscape:path-effect
       effect="powerstroke"
       message=""
       id="path-effect7"
       is_visible="true"
       lpeversion="1.3"
       scale_width="1"
       interpolator_type="CubicBezierJohan"
       interpolator_beta="0.2"
       start_linecap_type="zerowidth"
       end_linecap_type="zerowidth"
       offset_points="0,-0.03735107"
       linejoin_type="extrp_arc"
       miter_limit="4"
       not_jump="false"
       sort_points="true" />
    <inkscape:path-effect
       effect="powerstroke"
       message=""
       id="path-effect5"
       is_visible="true"
       lpeversion="1.3"
       scale_width="1"
       interpolator_type="CubicBezierJohan"
       interpolator_beta="0.2"
       start_linecap_type="zerowidth"
       end_linecap_type="zerowidth"
       offset_points="0,4.9921382"
       linejoin_type="extrp_arc"
       miter_limit="4"
       not_jump="false"
       sort_points="true" />
    <inkscape:path-effect
       effect="powerstroke"
       message=""
       id="path-effect3"
       is_visible="true"
       lpeversion="1.3"
       scale_width="1"
       interpolator_type="CubicBezierJohan"
       interpolator_beta="0.2"
       start_linecap_type="zerowidth"
       end_linecap_type="zerowidth"
       offset_points="0,4.9921382"
       linejoin_type="extrp_arc"
       miter_limit="4"
       not_jump="false"
       sort_points="true" />
    <inkscape:path-effect
       effect="powerstroke"
       message=""
       id="path-effect1"
       is_visible="true"
       lpeversion="1.3"
       scale_width="1"
       interpolator_type="CubicBezierJohan"
       interpolator_beta="0.2"
       start_linecap_type="zerowidth"
       end_linecap_type="zerowidth"
       offset_points="0,4.9921382"
       linejoin_type="extrp_arc"
       miter_limit="4"
       not_jump="false"
       sort_points="true" />
    <inkscape:path-effect
       effect="fill_between_many"
       method="bsplinespiro"
       autoreverse="false"
       close="false"
       join="false"
       linkedpaths="#path1,0,1"
       id="path-effect2" />
    <inkscape:path-effect
       effect="fill_between_many"
       method="bsplinespiro"
       autoreverse="false"
       close="false"
       join="false"
       linkedpaths="#path3,0,1"
       id="path-effect4" />
    <clipPath
       clipPathUnits="userSpaceOnUse"
       id="clipPath4">
      <path
         style="display:inline;fill:#497e8f;fill-opacity:0;fill-rule:nonzero;stroke:none;stroke-opacity:0"
         d="M 81.423894,9.7808679 C 96.272988,45.706972 113.92581,88.416461 133.85298,136.62853 l 3.67587,8.89345 5.15362,-8.12685 c 1.5321,-2.41599 3.20536,-5.05459 4.99325,-7.87396 l 0.35952,-0.56693 0.19698,-0.64178 c 0.94246,-3.07059 1.93835,-6.31527 2.97674,-9.69841 l 0.033,-0.10739 0.0281,-0.10877 c 0.95888,-3.71178 1.95399,-7.56385 2.97674,-11.52288 l 0.12946,-0.50113 0.0239,-0.51703 c 0.34415,-7.445916 0.6971,-15.082601 1.05627,-22.8537 l 0.005,-0.115182 v -0.115303 c 0,-6.215715 0,-12.53532 0,-18.916723 v -0.375423 l -0.0562,-0.371201 c -0.57192,-3.781033 -1.14928,-7.597982 -1.72844,-11.426853 l -0.0284,-0.187729 -0.0426,-0.185031 c -0.83135,-3.613176 -1.66527,-7.237533 -2.49662,-10.850709 l -0.0866,-0.376215 -0.14338,-0.358434 c -2.05922,-5.148061 -4.11203,-10.280093 -6.14553,-15.363834 l -0.38055,-0.951388 -0.72456,-0.724555 c -2.59143,-2.591433 -5.15777,-5.15777 -7.68192,-7.681919 l -0.41727,-0.41727 -0.50306,-0.30848 c -3.46107,-2.122359 -6.86229,-4.208009 -10.17854,-6.2415583 l -0.56385,-0.3457625 -0.63445,-0.1869939 c -3.13423,-0.923774 -6.18379,-1.8225894 -9.12228,-2.6886709 l -0.25812,-0.076077 -0.2648,-0.04789 c -3.14867,-0.5694411 -6.16847,-1.1155752 -9.02625,-1.6324072 l -0.33207,-0.060055 -0.33712,-0.014819 C 101.1804,2.8451369 98.252193,2.7164247 95.571028,2.5985714 l -0.186727,-0.00821 -0.186818,0.00578 c -3.540175,0.1094899 -6.6763,0.2064835 -9.314326,0.288072 z m 4.767907,3.0828501 c 2.591529,-0.08015 5.663753,-0.175167 9.127508,-0.282294 2.397915,0.105403 5.212131,0.229104 8.214331,0.361069 2.4455,0.442273 5.37613,0.97228 8.42938,1.524463 2.48173,0.731458 5.31814,1.567452 8.22971,2.4256 2.59159,1.589181 5.82396,3.571293 9.11163,5.587317 1.87141,1.871413 4.19478,4.194781 6.54009,6.540092 1.60574,4.01436 3.61047,9.026182 5.6216,14.054014 0.7306,3.175287 1.55024,6.737592 2.36749,10.289463 0.53181,3.515882 1.09034,7.208338 1.64389,10.867923 0,5.966525 0,12.247436 0,18.425995 -0.34554,7.476157 -0.69047,14.939227 -1.02705,22.2215 -0.8833,3.41924 -1.86897,7.23474 -2.81918,10.91298 -0.93337,3.04098 -1.8629,6.06944 -2.7468,8.94926 -1.65303,2.6067 -3.20478,5.05368 -4.63373,7.30703 l 8.82949,0.7666 C 123.15298,84.602657 105.50016,41.893168 90.651064,5.9670637 Z"
         id="path5"
         inkscape:path-effect="#path-effect3"
         inkscape:original-d="m 86.037479,7.8739658 52.429091,126.8476642 4.99325,-7.87396 2.97674,-9.69842 2.97674,-11.52288 1.05627,-22.853706 V 63.855942 L 148.74113,52.429089 146.24451,41.57838 140.09898,26.214545 132.41706,18.532627 122.23852,12.291068 113.11624,9.6023973 104.08999,7.9699897 95.351805,7.5858938 Z"
         inkscape:linked-fill="path4" />
    </clipPath>
    <clipPath
       clipPathUnits="userSpaceOnUse"
       id="clipPath5">
      <path
         style="display:inline;fill:#497e8f;fill-opacity:0;fill-rule:nonzero;stroke:none;stroke-opacity:0"
         d="M 81.423894,9.7808679 C 96.272988,45.706972 113.92581,88.416461 133.85298,136.62853 l 3.67587,8.89345 5.15362,-8.12685 c 1.5321,-2.41599 3.20536,-5.05459 4.99325,-7.87396 l 0.35952,-0.56693 0.19698,-0.64178 c 0.94246,-3.07059 1.93835,-6.31527 2.97674,-9.69841 l 0.033,-0.10739 0.0281,-0.10877 c 0.95888,-3.71178 1.95399,-7.56385 2.97674,-11.52288 l 0.12946,-0.50113 0.0239,-0.51703 c 0.34415,-7.445916 0.6971,-15.082601 1.05627,-22.8537 l 0.005,-0.115182 v -0.115303 c 0,-6.215715 0,-12.53532 0,-18.916723 v -0.375423 l -0.0562,-0.371201 c -0.57192,-3.781033 -1.14928,-7.597982 -1.72844,-11.426853 l -0.0284,-0.187729 -0.0426,-0.185031 c -0.83135,-3.613176 -1.66527,-7.237533 -2.49662,-10.850709 l -0.0866,-0.376215 -0.14338,-0.358434 c -2.05922,-5.148061 -4.11203,-10.280093 -6.14553,-15.363834 l -0.38055,-0.951388 -0.72456,-0.724555 c -2.59143,-2.591433 -5.15777,-5.15777 -7.68192,-7.681919 l -0.41727,-0.41727 -0.50306,-0.30848 c -3.46107,-2.122359 -6.86229,-4.208009 -10.17854,-6.2415583 l -0.56385,-0.3457625 -0.63445,-0.1869939 c -3.13423,-0.923774 -6.18379,-1.8225894 -9.12228,-2.6886709 l -0.25812,-0.076077 -0.2648,-0.04789 c -3.14867,-0.5694411 -6.16847,-1.1155752 -9.02625,-1.6324072 l -0.33207,-0.060055 -0.33712,-0.014819 C 101.1804,2.8451369 98.252193,2.7164247 95.571028,2.5985714 l -0.186727,-0.00821 -0.186818,0.00578 c -3.540175,0.1094899 -6.6763,0.2064835 -9.314326,0.288072 z m 4.767907,3.0828501 c 2.591529,-0.08015 5.663753,-0.175167 9.127508,-0.282294 2.397915,0.105403 5.212131,0.229104 8.214331,0.361069 2.4455,0.442273 5.37613,0.97228 8.42938,1.524463 2.48173,0.731458 5.31814,1.567452 8.22971,2.4256 2.59159,1.589181 5.82396,3.571293 9.11163,5.587317 1.87141,1.871413 4.19478,4.194781 6.54009,6.540092 1.60574,4.01436 3.61047,9.026182 5.6216,14.054014 0.7306,3.175287 1.55024,6.737592 2.36749,10.289463 0.53181,3.515882 1.09034,7.208338 1.64389,10.867923 0,5.966525 0,12.247436 0,18.425995 -0.34554,7.476157 -0.69047,14.939227 -1.02705,22.2215 -0.8833,3.41924 -1.86897,7.23474 -2.81918,10.91298 -0.93337,3.04098 -1.8629,6.06944 -2.7468,8.94926 -1.65303,2.6067 -3.20478,5.05368 -4.63373,7.30703 l 8.82949,0.7666 C 123.15298,84.602657 105.50016,41.893168 90.651064,5.9670637 Z"
         id="path6"
         inkscape:path-effect="#path-effect3"
         inkscape:original-d="m 86.037479,7.8739658 52.429091,126.8476642 4.99325,-7.87396 2.97674,-9.69842 2.97674,-11.52288 1.05627,-22.853706 V 63.855942 L 148.74113,52.429089 146.24451,41.57838 140.09898,26.214545 132.41706,18.532627 122.23852,12.291068 113.11624,9.6023973 104.08999,7.9699897 95.351805,7.5858938 Z"
         inkscape:linked-fill="path4" />
    </clipPath>
    <clipPath
       clipPathUnits="userSpaceOnUse"
       id="clipPath6">
      <path
         style="display:inline;fill:#ffffff;fill-opacity:0;fill-rule:nonzero;stroke:#497e8f;stroke-opacity:0;stroke-width:9.98427677"
         d="M 81.423894,9.7808679 C 96.272988,45.706972 113.92581,88.416461 133.85298,136.62853 l 3.67587,8.89345 5.15362,-8.12685 c 1.5321,-2.41599 3.20536,-5.05459 4.99325,-7.87396 l 0.35952,-0.56693 0.19698,-0.64178 c 0.94246,-3.07059 1.93835,-6.31527 2.97674,-9.69841 l 0.033,-0.10739 0.0281,-0.10877 c 0.95888,-3.71178 1.95399,-7.56385 2.97674,-11.52288 l 0.12946,-0.50113 0.0239,-0.51703 c 0.34415,-7.445916 0.6971,-15.082601 1.05627,-22.8537 l 0.005,-0.115182 v -0.115303 c 0,-6.215715 0,-12.53532 0,-18.916723 v -0.375423 l -0.0562,-0.371201 c -0.57192,-3.781033 -1.14928,-7.597982 -1.72844,-11.426853 l -0.0284,-0.187729 -0.0426,-0.185031 c -0.83135,-3.613176 -1.66527,-7.237533 -2.49662,-10.850709 l -0.0866,-0.376215 -0.14338,-0.358434 c -2.05922,-5.148061 -4.11203,-10.280093 -6.14553,-15.363834 l -0.38055,-0.951388 -0.72456,-0.724555 c -2.59143,-2.591433 -5.15777,-5.15777 -7.68192,-7.681919 l -0.41727,-0.41727 -0.50306,-0.30848 c -3.46107,-2.122359 -6.86229,-4.208009 -10.17854,-6.2415583 l -0.56385,-0.3457625 -0.63445,-0.1869939 c -3.13423,-0.923774 -6.18379,-1.8225894 -9.12228,-2.6886709 l -0.25812,-0.076077 -0.2648,-0.04789 c -3.14867,-0.5694411 -6.16847,-1.1155752 -9.02625,-1.6324072 l -0.33207,-0.060055 -0.33712,-0.014819 C 101.1804,2.8451369 98.252193,2.7164247 95.571028,2.5985714 l -0.186727,-0.00821 -0.186818,0.00578 c -3.540175,0.1094899 -6.6763,0.2064835 -9.314326,0.288072 z m 4.767907,3.0828501 c 2.591529,-0.08015 5.663753,-0.175167 9.127508,-0.282294 2.397915,0.105403 5.212131,0.229104 8.214331,0.361069 2.4455,0.442273 5.37613,0.97228 8.42938,1.524463 2.48173,0.731458 5.31814,1.567452 8.22971,2.4256 2.59159,1.589181 5.82396,3.571293 9.11163,5.587317 1.87141,1.871413 4.19478,4.194781 6.54009,6.540092 1.60574,4.01436 3.61047,9.026182 5.6216,14.054014 0.7306,3.175287 1.55024,6.737592 2.36749,10.289463 0.53181,3.515882 1.09034,7.208338 1.64389,10.867923 0,5.966525 0,12.247436 0,18.425995 -0.34554,7.476157 -0.69047,14.939227 -1.02705,22.2215 -0.8833,3.41924 -1.86897,7.23474 -2.81918,10.91298 -0.93337,3.04098 -1.8629,6.06944 -2.7468,8.94926 -1.65303,2.6067 -3.20478,5.05368 -4.63373,7.30703 l 8.82949,0.7666 C 123.15298,84.602657 105.50016,41.893168 90.651064,5.9670637 Z"
         id="path7"
         inkscape:path-effect="#path-effect3"
         inkscape:original-d="m 86.037479,7.8739658 52.429091,126.8476642 4.99325,-7.87396 2.97674,-9.69842 2.97674,-11.52288 1.05627,-22.853706 V 63.855942 L 148.74113,52.429089 146.24451,41.57838 140.09898,26.214545 132.41706,18.532627 122.23852,12.291068 113.11624,9.6023973 104.08999,7.9699897 95.351805,7.5858938 Z"
         inkscape:linked-fill="path4" />
    </clipPath>
    <inkscape:path-effect
       effect="fill_between_many"
       method="bsplinespiro"
       autoreverse="false"
       close="false"
       join="false"
       linkedpaths="#path3,0,1"
       id="path-effect6" />
    <inkscape:path-effect
       effect="fill_between_many"
       method="bsplinespiro"
       autoreverse="false"
       close="false"
       join="false"
       linkedpaths="#path2,0,1"
       id="path-effect8" />
    <inkscape:path-effect
       effect="fill_between_many"
       method="bsplinespiro"
       autoreverse="false"
       close="false"
       join="false"
       linkedpaths="#path9,0,1"
       id="path-effect10" />
  </defs>
  <sodipodi:namedview
     id="namedview1"
     pagecolor="#ffffff"
     bordercolor="#000000"
     borderopacity="0.25"
     inkscape:showpageshadow="2"
     inkscape:pageopacity="0.0"
     inkscape:pagecheckerboard="0"
     inkscape:deskcolor="#d1d1d1"
     inkscape:zoom="0.91425448"
     inkscape:cx="162.42742"
     inkscape:cy="194.69415"
     inkscape:window-width="1800"
     inkscape:window-height="1045"
     inkscape:window-x="0"
     inkscape:window-y="40"
     inkscape:window-maximized="1"
     inkscape:current-layer="svg1" />
  <path
     id="path3"
     clip-path="none"
     style="display:inline;fill:#000000;fill-opacity:1;fill-rule:nonzero;stroke:none;stroke-opacity:0"
     d="M 0.015625,0 0.05273437,4.328125 C 15.535501,4.6054774 15.805488,8.4883958 23.261626,17.300122 28.452881,28.547754 61.756651,103.64207 80.703125,151.92578 l -60.310547,-0.002 0.34961,79.90234 c 0.236077,23.73316 -6.224907,23.84946 -20.67773488,24.01758 l -0.0019531,3.99414 106.91796998,-0.01 -0.10742,-3.7246 c -18.830702,-0.67399 -27.268887,-0.60044 -27.2168,-20.25 l 0.03516,-75.81641 4.353516,-0.0352 41.039054,99.91602 65.60547,0.19336 -22.67187,-56.00391 61.99219,-171.980467 -0.85938,203.419927 c 0.28346,21.18523 -6.81262,20.95182 -19.67969,21.25781 l -0.0254,3.27734 98.84571,0.0703 0.11328,-3.29101 c -13.5727,-0.49946 -19.50864,-0.2262 -19.52539,-15.4043 L 288.81836,23.769531 C 290.13347,8.9934604 299.70371,7.49756 308.25977,4.2382812 V 0.40429688 L 230.49414,0.046875 206.05859,67.466797 C 201.11647,28.709615 171.26317,1.197948 101.45117,0.00195313 Z M 99.283203,8.0546875 C 118.68773,7.2091146 137.55949,22.202522 147.41016,46.291016 c 12.21411,29.868687 7.44391,65.733744 -11.25782,84.642574 L 87.027344,10.806641 C 90.966786,9.1629613 95.085787,8.238073 99.283203,8.0546875 Z m 82.169917,127.8398425 -0.041,0.11133 c -8.20134,22.57619 -15.53876,42.77553 -19.80859,54.5293 l -0.0606,0.002 c -3.26102,-7.8945 -8.86525,-21.46156 -15.12891,-36.625 l -0.0137,-0.0332 0.0352,-0.01 c 12.1749,-3.36962 23.9104,-8.87905 34.92578,-17.89844 z"
     sodipodi:nodetypes="cccccccccccccccccccccccccccccccccccccccscscc" />
  <g
     id="g19" />
</svg>
